<?xml version="1.0" encoding="utf-8"?>
<!-- Generator: Adobe Illustrator 24.1.2, SVG Export Plug-In . SVG Version: 6.00 Build 0)  -->
<svg version="1.1" id="Слой_1" xmlns="http://www.w3.org/2000/svg" xmlns:xlink="http://www.w3.org/1999/xlink" x="0px" y="0px"
	 viewBox="0 0 125 125" style="enable-background:new 0 0 125 125;" xml:space="preserve">
<style type="text/css">
	.st0{fill:#EEC062;}
</style>
<image style="display:none;overflow:visible;" width="512" height="512" xlink:href="../../../../ЗАГРУЗКИ/left.png"  transform="matrix(0.2426 0 0 0.2426 0 0)">
</image>
<g>
	<path class="st0" d="M62,3.5C29.7,3.5,3.5,29.7,3.5,62s26.2,58.5,58.5,58.5s58.5-26.2,58.5-58.5S94.3,3.5,62,3.5z M62.5,114.5
		c-29.3,0-53-23.7-53-53c0-29.3,23.7-53,53-53c29.3,0,53,23.7,53,53C115.5,90.8,91.8,114.5,62.5,114.5z"/>
	<path class="st0" d="M38.2,64.3L38.2,64.3c1.2,1.2,3.3,1.2,4.5,0l30.5-30.5c1.2-1.2,1.2-3.3,0-4.5v0C72,28,70,28,68.8,29.2
		L38.2,59.8C37,61,37,63,38.2,64.3z"/>
	<path class="st0" d="M38.4,60.5L38.4,60.5c-1.2,1.2-1.2,3.3,0,4.5l30.5,30.5c1.2,1.2,3.3,1.2,4.5,0h0c1.2-1.2,1.2-3.3,0-4.5
		L42.9,60.5C41.7,59.2,39.7,59.2,38.4,60.5z"/>
</g>
</svg>
