<?xml version="1.0" encoding="utf-8"?>
<!-- Generator: Adobe Illustrator 24.1.2, SVG Export Plug-In . SVG Version: 6.00 Build 0)  -->
<svg version="1.1" xmlns="http://www.w3.org/2000/svg" xmlns:xlink="http://www.w3.org/1999/xlink" x="0px" y="0px"
	 viewBox="0 0 1200 800" style="enable-background:new 0 0 1200 800;" xml:space="preserve">
<style type="text/css">
	.st0{fill:#FFBA1C;}
</style>
<g id="background">
</g>
<g id="shadow">
</g>
<g id="objects">
	<g>
		<path class="st0" d="M31.1,260.5c25.7-3.1,51.4-6.1,77-10.6c25.6-4.3,51-10.2,76-18.6c6.2-2.3,12.4-4.3,18.5-7l4.6-1.9
			c1.5-0.6,3.1-1.2,4.6-2l9.1-4.2l2.3-1.1l2.2-1.2l4.4-2.4c3-1.6,6-3.1,8.8-4.9l8.7-5.2c2.9-1.8,5.7-3.7,8.6-5.5
			c11.4-7.5,22.7-15.2,34.4-22.2c11.7-6.9,23.7-13.1,36.2-17.2c6.3-2,12.6-3.7,19-4.6c3.2-0.6,6.4-0.9,9.7-1.3
			c1.6-0.2,3.2-0.2,4.8-0.4c1.6-0.1,3.2-0.3,4.8-0.3c12.9-0.4,25.9,0.7,38.7,2.8c12.8,2.1,25.5,5.1,38.2,8.6
			c12.6,3.5,25.2,7.3,37.7,11.4c25,8.1,49.9,16.9,74.9,24.7c25,7.9,50.3,14.8,75.9,19.2c25.6,4.4,51.5,6.1,77.2,3.6
			c25.7-2.4,51.2-9.3,75-21.6c23.8-12.2,46.3-28.5,70.7-39.3c24.4-10.8,50.6-14.8,76.4-12.7c12.9,0.9,25.8,3,38.5,6.1
			c12.7,3.1,25.2,7,37.7,11.4c24.9,8.8,49.1,19.8,73.6,30.2c12.2,5.2,24.5,10.2,36.8,14.8c12.4,4.6,24.9,8.6,37.5,11.9l4.7,1.2
			c1.6,0.4,3.2,0.8,4.8,1.1l9.6,2l9.6,1.5c1.6,0.3,3.2,0.4,4.8,0.6l4.8,0.5c12.9,1.1,25.8,1,38.7-0.6c-12.9,1.7-25.8,1.8-38.7,0.8
			l-4.8-0.5c-1.6-0.1-3.2-0.3-4.8-0.6l-9.6-1.4l-9.6-1.9c-1.6-0.3-3.2-0.7-4.8-1.1l-4.8-1.2c-12.7-3.2-25.2-7.2-37.6-11.7
			c-12.4-4.6-24.7-9.5-36.9-14.7c-24.5-10.3-48.7-21.4-73.6-30.1c-12.4-4.4-25-8.2-37.6-11.3c-12.7-3-25.5-5.1-38.4-6
			c-25.7-2.1-51.8,2-76.1,12.7c-24.3,10.9-46.7,27.1-70.6,39.4c-23.9,12.5-49.5,19.3-75.3,21.8c-25.8,2.5-51.8,0.8-77.4-3.5
			c-25.6-4.4-50.9-11.4-76-19.3c-25-7.9-49.9-16.7-74.9-24.8c-12.5-4.1-25-7.9-37.6-11.4c-12.6-3.5-25.3-6.5-38.1-8.6
			c-12.8-2.1-25.7-3.2-38.6-2.8c-1.6,0-3.2,0.2-4.8,0.2c-1.6,0.1-3.2,0.2-4.8,0.4c-3.2,0.4-6.4,0.7-9.6,1.3c-6.4,1-12.7,2.7-19,4.6
			c-12.5,4.1-24.5,10.2-36.1,17.1c-11.6,6.9-23,14.6-34.4,22.1c-2.9,1.9-5.7,3.7-8.6,5.5l-8.7,5.2c-2.9,1.8-5.9,3.3-8.9,4.9
			l-4.5,2.4l-2.2,1.2l-2.3,1.1l-9.1,4.2c-1.5,0.7-3,1.3-4.6,2l-4.6,1.9c-3.1,1.3-6.1,2.5-9.2,3.6l-9.3,3.3
			c-25,8.3-50.5,14.1-76.1,18.3C82.5,254.6,56.8,257.5,31.1,260.5z"/>
		<path class="st0" d="M31.1,273.5c25.7-2.5,51.4-5.2,76.9-9.6c25.5-4.2,50.9-10.2,75.8-18.6l9.3-3.4l4.6-1.7l4.6-1.9l9.1-3.8l9-4.3
			c1.5-0.7,3-1.4,4.5-2.2l4.4-2.4l4.4-2.4c1.5-0.8,3-1.5,4.4-2.5c5.8-3.5,11.6-6.9,17.3-10.7c11.4-7.5,22.6-15.3,34.2-22.4
			c11.5-7.2,23.4-13.7,35.7-18.4c12.3-4.8,25.1-7.6,38-9c6.4-0.6,12.9-1,19.3-1c6.5,0,12.9,0.3,19.3,0.8c12.9,1.1,25.7,3.1,38.4,5.5
			c12.7,2.4,25.4,5.2,38.1,8.1c25.4,5.8,50.6,12.4,75.8,19c12.6,3.3,25.2,6.8,37.7,10.5c6.3,1.9,12.5,3.8,18.8,5.5l9.4,2.6l4.7,1.3
			l4.7,1.2c25.2,6.3,50.9,10.2,76.7,9.5c12.9-0.3,25.7-1.9,38.3-4.8c6.3-1.5,12.6-3.3,18.8-5.5c6.2-2.2,12.3-4.8,18.3-7.6
			c24.1-11.3,47-26.2,71.6-36.2c12.3-5,24.9-8.6,37.7-10.7c12.8-2.2,25.7-3,38.6-2.5c12.9,0.5,25.8,2.5,38.4,5.6
			c12.7,3.1,25.1,7.2,37.5,11.8c24.7,9.1,49,20,73.4,30c12.2,5,24.5,9.8,37,14.1c12.4,4.3,24.9,8,37.6,11c25.3,6,51.2,8.5,76.9,5.4
			c-25.7,3.3-51.7,0.9-77-5.1c-12.7-2.9-25.2-6.6-37.7-10.9c-12.4-4.2-24.8-8.9-37-13.9c-24.5-10-48.7-20.9-73.5-29.9
			c-12.3-4.5-24.8-8.6-37.5-11.7c-12.6-3.1-25.4-5-38.3-5.6c-12.9-0.5-25.8,0.3-38.5,2.5c-12.8,2.2-25.4,5.7-37.6,10.7
			c-24.5,10-47.4,25-71.5,36.3c-6,2.8-12.2,5.4-18.4,7.6c-6.2,2.2-12.5,4-18.8,5.5c-12.7,3-25.6,4.6-38.5,4.9
			c-25.8,0.7-51.6-3.2-76.9-9.4l-4.7-1.2l-4.7-1.3l-9.4-2.7c-6.3-1.7-12.5-3.7-18.8-5.6c-12.5-3.7-25.1-7.3-37.7-10.6
			c-25.2-6.6-50.4-13.2-75.8-19.1c-12.7-2.9-25.4-5.7-38.1-8.1c-12.7-2.5-25.5-4.5-38.4-5.6c-6.4-0.5-12.9-0.9-19.3-0.9
			c-6.4-0.1-12.9,0.3-19.3,0.9c-12.8,1.4-25.6,4.2-37.8,9c-12.3,4.7-24.1,11.2-35.6,18.3c-11.5,7.1-22.8,14.9-34.2,22.4
			c-22.7,15.3-47,26.6-71.8,35.2c-24.9,8.3-50.3,14.2-75.9,18.3C82.5,268.5,56.8,271.1,31.1,273.5z"/>
		<path class="st0" d="M31,286.5c25.7-1.9,51.4-4.4,76.9-8.6c12.8-2,25.5-4.7,38.1-7.7l9.5-2.4c3.2-0.8,6.3-1.8,9.4-2.7
			c6.3-1.7,12.5-3.9,18.7-5.9c3.1-1,6.2-2.3,9.2-3.4c3.1-1.2,6.2-2.3,9.2-3.6l9.1-3.9c3-1.4,6-2.9,9-4.3l4.5-2.2
			c1.5-0.8,2.9-1.6,4.4-2.4l8.8-4.8l8.7-5.3c1.4-0.9,2.9-1.7,4.3-2.7l4.3-2.8c11.4-7.5,22.6-15.3,34-22.7
			c11.4-7.3,23.1-14.2,35.3-19.5l4.6-1.9c1.5-0.6,3.1-1.2,4.6-1.7c3.1-1.2,6.2-2.1,9.3-3.1c6.3-1.8,12.6-3.4,19-4.4
			c12.8-2.3,25.7-3,38.6-3.1c12.9,0.1,25.8,1,38.6,2.4c12.8,1.3,25.7,2.9,38.5,4.6c25.6,3.5,51.2,7.7,76.6,13.1
			c12.7,2.8,25.3,6.1,37.7,10.4c12.4,4.4,24.7,9.1,37.1,13.3c24.8,8.3,50.2,14.4,75.9,15.7c12.8,0.6,25.7-0.2,38.4-2.6
			c6.4-1.2,12.7-2.7,18.9-4.7c6.2-2,12.4-4.3,18.5-6.8c24.4-10.2,47.7-24,72.4-33.3c12.3-4.7,25-8.2,37.7-10.6
			c12.7-2.5,25.6-3.8,38.5-3.6c12.9,0.2,25.8,2.1,38.4,5.3c12.6,3.2,25.1,7.5,37.4,12.2c6.2,2.4,12.3,4.8,18.4,7.2l18.4,7.5
			c12.2,5.1,24.4,10.2,36.7,15c24.5,9.6,49.4,18,74.8,23.5c25.3,5.5,51.3,7.7,76.9,4.6c-25.7,3.1-51.6,1.1-77-4.3
			c-25.4-5.4-50.3-13.7-74.9-23.2c-12.3-4.8-24.5-9.9-36.7-14.9l-18.4-7.5c-6.1-2.5-12.3-4.9-18.4-7.2c-12.3-4.7-24.7-9-37.3-12.2
			c-12.6-3.2-25.4-5.1-38.3-5.2c-12.9-0.2-25.7,1.2-38.4,3.7c-12.7,2.5-25.3,5.9-37.6,10.6c-24.6,9.4-47.9,23.1-72.4,33.4
			c-6.1,2.6-12.3,4.9-18.5,6.9c-6.3,2-12.6,3.5-19,4.7c-12.8,2.4-25.7,3.2-38.6,2.6c-25.8-1.3-51.3-7.3-76.2-15.6
			c-12.4-4.2-24.7-9-37.1-13.4c-12.4-4.3-25-7.6-37.6-10.4c-25.4-5.4-50.9-9.7-76.5-13.2c-12.8-1.7-25.6-3.3-38.4-4.7
			c-12.8-1.4-25.7-2.3-38.5-2.4c-12.9,0-25.7,0.7-38.5,3c-6.4,1-12.7,2.6-18.9,4.4c-3.1,1-6.2,1.9-9.3,3.1c-1.5,0.6-3.1,1.1-4.6,1.7
			l-4.6,1.9c-12.1,5.3-23.8,12.1-35.2,19.4c-11.4,7.3-22.7,15.1-34,22.6l-4.3,2.8c-1.4,0.9-2.9,1.8-4.3,2.7l-8.7,5.3l-8.9,4.8
			c-1.5,0.8-2.9,1.6-4.4,2.4l-4.5,2.2c-3,1.4-6,2.9-9,4.3l-9.1,3.9c-3,1.3-6.1,2.5-9.2,3.6c-3.1,1.1-6.2,2.4-9.3,3.4
			c-6.2,2-12.4,4.2-18.7,5.9c-3.1,0.9-6.3,1.9-9.4,2.6l-9.5,2.4c-12.7,3-25.4,5.5-38.2,7.5C82.4,282.3,56.7,284.7,31,286.5z"/>
		<path class="st0" d="M31,299.5c25.7-1.3,51.5-3.5,77-7.7c12.8-2,25.5-4.6,38.1-7.7l9.5-2.4l2.4-0.6l2.3-0.7l4.7-1.4
			c6.3-1.7,12.5-3.9,18.7-6c12.4-4.5,24.6-9.3,36.6-15.4c6-2.8,11.9-6.2,17.8-9.4c2.9-1.7,5.8-3.5,8.7-5.3l4.3-2.7
			c1.4-0.9,2.8-1.9,4.3-2.8c22.7-15,44.8-31.7,68.9-43.4c12-5.8,24.5-10.3,37.1-13.3c6.3-1.6,12.7-2.7,19.1-3.7
			c6.4-0.9,12.8-1.6,19.3-2.1c12.9-0.9,25.8-1.1,38.7-0.9c12.9,0.2,25.8,0.5,38.7,0.9c25.8,0.9,51.5,2.9,77.1,7.2
			c12.8,2.3,25.4,5.6,37.8,10.5c12.3,5,24.3,10.8,36.4,16c24.3,10.4,49.3,19,74.9,22.2c12.8,1.5,25.7,1.4,38.5-0.3
			c6.4-0.9,12.7-2.2,19-3.8c6.3-1.7,12.5-3.8,18.7-6c24.7-9.2,48.4-21.9,73.2-30.8c12.4-4.5,25-8,37.7-10.9
			c12.7-2.8,25.5-4.8,38.5-4.9c6.5-0.1,12.9,0.3,19.3,1.2c6.4,0.9,12.8,2.2,19.1,3.9c12.6,3.3,25,7.9,37.3,12.7
			c12.3,4.8,24.5,9.8,36.8,14.7c12.2,5,24.5,10,36.8,14.7c12.3,4.7,24.8,8.8,37.3,12.6c12.5,3.7,25.2,6.9,37.9,9.4
			c25.4,5,51.4,6.8,77,4c-25.7,3-51.6,1.3-77.1-3.7c-12.7-2.4-25.4-5.6-37.9-9.3c-12.5-3.7-25-7.8-37.3-12.4
			c-12.3-4.6-24.6-9.6-36.8-14.6c-12.3-4.9-24.5-9.9-36.8-14.7c-12.3-4.8-24.7-9.3-37.2-12.6c-6.3-1.6-12.6-3-19-3.9
			c-6.4-0.9-12.8-1.2-19.3-1.2c-12.9,0.1-25.7,2.1-38.3,4.9c-12.7,2.9-25.2,6.4-37.6,10.9c-24.7,9-48.4,21.7-73.2,30.9
			c-6.2,2.3-12.4,4.4-18.7,6.1c-6.3,1.7-12.7,3-19.1,3.9c-12.8,1.8-25.8,1.9-38.7,0.3c-25.7-3.2-50.8-11.8-75.2-22.2
			c-12.2-5.2-24.2-11.1-36.4-16.1c-12.2-4.9-24.9-8.2-37.6-10.5c-25.5-4.3-51.3-6.3-77-7.3c-12.9-0.5-25.8-0.8-38.6-1
			c-12.9-0.2-25.8-0.1-38.6,0.8c-25.7,1.8-51.4,7.3-75.3,19c-24,11.6-46.1,28.3-68.9,43.3c-1.4,0.9-2.8,1.9-4.3,2.8l-4.3,2.7
			c-2.9,1.8-5.8,3.6-8.7,5.3c-5.9,3.2-11.7,6.6-17.8,9.4c-12,6-24.3,10.9-36.6,15.3c-6.2,2.1-12.4,4.2-18.7,6l-4.7,1.4l-2.4,0.7
			l-2.4,0.6l-9.5,2.4c-12.7,3-25.4,5.6-38.2,7.5C82.5,296.2,56.8,298.2,31,299.5z"/>
		<path class="st0" d="M31,312.5c25.8-0.7,51.6-2.6,77.3-6.8c12.8-1.9,25.6-4.6,38.2-7.7c6.3-1.7,12.6-3.2,18.9-5.2l4.7-1.4l2.4-0.7
			l2.3-0.8l9.3-3.2c12.4-4.5,24.7-9.5,36.6-15.6c6-2.8,11.9-6.2,17.8-9.5c1.5-0.8,2.9-1.7,4.4-2.6l4.3-2.7c2.9-1.8,5.8-3.5,8.6-5.5
			c11.4-7.5,22.6-15.5,33.9-23.2c11.3-7.7,22.8-15.1,34.7-21.3c11.9-6.3,24.2-11.4,36.8-15.2c6.3-1.9,12.6-3.6,19-5
			c6.4-1.4,12.8-2.6,19.2-3.6c12.8-2,25.7-3.2,38.6-4.2c12.9-1,25.8-2.1,38.7-2.9c12.9-0.8,25.8-1.4,38.8-1.3
			c6.5,0.1,12.9,0.3,19.4,0.6c6.5,0.4,12.9,0.9,19.3,1.9c12.8,1.9,25.6,5.2,37.8,10.8c3,1.4,6,3,9,4.5l8.9,4.8
			c5.9,3.2,11.8,6.5,17.8,9.6c11.9,6.3,23.9,12.2,36.1,17.2c6.1,2.5,12.3,4.8,18.6,6.8c6.2,2,12.5,3.7,18.9,5
			c6.4,1.2,12.8,2,19.2,2.4c6.4,0.3,12.9,0.2,19.3-0.3c12.9-1.1,25.6-4.1,38-8.2c25-8.1,49.1-19.9,73.9-28.7
			c12.4-4.4,25-8.1,37.6-11.5c12.6-3.3,25.5-5.8,38.4-6.2c13-0.5,25.9,1.5,38.5,5c12.6,3.5,25,8.2,37.3,13.1l36.9,14.7
			c12.3,5,24.6,9.8,37,14.3c12.4,4.5,24.9,8.4,37.5,11.9c12.6,3.5,25.3,6.4,38.1,8.7c25.6,4.6,51.5,6.1,77.3,3.3
			c-25.7,2.9-51.7,1.4-77.3-3c-12.8-2.2-25.5-5.1-38.1-8.6c-12.6-3.4-25.2-7.3-37.6-11.7c-12.4-4.4-24.7-9.3-37-14.2l-36.9-14.7
			c-12.3-4.9-24.6-9.6-37.2-13c-12.6-3.5-25.5-5.4-38.4-5c-12.9,0.4-25.7,2.9-38.3,6.3c-12.6,3.4-25.2,7.1-37.6,11.5
			c-24.8,8.8-48.9,20.6-73.9,28.8c-12.5,4.1-25.3,7.2-38.2,8.3c-6.5,0.5-12.9,0.7-19.4,0.3c-6.5-0.3-12.9-1.1-19.3-2.3
			c-6.4-1.2-12.7-3-19-5c-6.3-2-12.5-4.3-18.6-6.8c-12.3-5-24.3-10.9-36.2-17.2c-5.9-3.2-11.8-6.4-17.7-9.6l-8.9-4.8
			c-3-1.5-6-3-9-4.4c-12.1-5.6-24.8-8.9-37.5-10.8c-6.4-1-12.8-1.5-19.3-1.9c-6.4-0.4-12.9-0.6-19.3-0.7
			c-12.9-0.1-25.8,0.4-38.7,1.2c-12.9,0.8-25.8,1.9-38.7,2.8c-12.9,1-25.8,2.2-38.6,4.2c-6.4,0.9-12.8,2.2-19.1,3.5
			c-6.3,1.4-12.7,3-18.9,5c-12.5,3.8-24.8,8.9-36.7,15.1c-11.9,6.2-23.4,13.6-34.7,21.2c-11.3,7.6-22.5,15.6-34,23.1
			c-2.8,1.9-5.7,3.7-8.6,5.5l-4.3,2.7c-1.4,0.9-2.9,1.8-4.4,2.6c-5.9,3.2-11.8,6.6-17.8,9.5c-12,6.1-24.3,11-36.7,15.5l-9.3,3.2
			l-2.3,0.8l-2.4,0.7l-4.7,1.4c-6.3,2-12.6,3.5-18.9,5.1c-12.7,3-25.4,5.6-38.3,7.5C82.6,310,56.8,311.8,31,312.5z"/>
		<path class="st0" d="M31,325.4c25.9-0.2,51.9-1.8,77.6-5.9c12.9-1.9,25.7-4.6,38.4-7.7c6.3-1.7,12.7-3.3,19-5.3l4.7-1.4l2.4-0.7
			l2.3-0.8l9.4-3.3l2.3-0.8l2.3-0.9l4.6-1.8l4.6-1.8l2.3-0.9l2.3-1l9.1-4.1l2.3-1l2.3-1.1l4.5-2.3c6.1-2.9,11.9-6.3,17.8-9.6
			c1.5-0.8,2.9-1.7,4.4-2.6l4.3-2.7c2.9-1.8,5.8-3.6,8.6-5.5c22.8-15.2,44.9-32.2,68.5-45.6c11.8-6.7,24-12.3,36.4-16.9
			c12.4-4.6,25.1-8.2,37.9-11.2c12.7-3,25.6-5.4,38.4-7.6c12.8-2.2,25.7-4.7,38.5-6.9c12.9-2.2,25.8-4,38.7-4.9
			c6.5-0.5,13-0.7,19.5-0.7c6.5,0,13,0.2,19.5,1c12.9,1.5,25.8,5,37.8,11.4c1.5,0.8,3,1.6,4.4,2.5c1.5,0.9,3,1.7,4.4,2.6l8.6,5.5
			l8.6,5.6l8.6,5.6c11.5,7.4,23.1,14.5,35.1,20.7c6,3.1,12,6,18.1,8.6c6.1,2.6,12.3,4.9,18.7,6.5c12.6,3.4,25.6,4.9,38.5,4.4
			c12.9-0.4,25.8-2.9,38.4-6.4c12.6-3.5,25.1-8,37.5-12.7l18.6-7.1l9.3-3.5l4.7-1.8c1.6-0.6,3.1-1.1,4.7-1.6l18.8-6.4
			c6.3-2.1,12.5-4.1,18.8-6c12.6-3.8,25.4-7,38.4-7.6c13-0.8,26,1.3,38.7,4.9c12.7,3.6,25,8.6,37.4,13.5l37,14.7
			c12.3,4.9,24.7,9.7,37.2,14c12.5,4.3,25.1,7.9,37.8,11.2c12.7,3.2,25.5,5.9,38.3,8c25.7,4.1,51.8,5.4,77.6,2.7
			c-25.9,2.8-51.9,1.6-77.7-2.4c-12.9-2-25.7-4.7-38.4-7.9c-12.7-3.2-25.4-6.8-37.9-11c-12.5-4.3-24.9-9-37.3-13.9l-37.1-14.7
			c-12.3-4.9-24.7-9.9-37.3-13.5c-12.6-3.6-25.6-5.7-38.5-4.9c-12.9,0.7-25.7,3.8-38.3,7.6c-6.3,1.9-12.6,3.9-18.8,6l-18.7,6.4
			c-1.6,0.5-3.1,1-4.7,1.6l-4.6,1.8l-9.3,3.5l-18.6,7.1c-12.4,4.7-24.9,9.3-37.5,12.8c-12.7,3.5-25.6,6.1-38.6,6.5
			c-13,0.5-26-1-38.8-4.4c-6.4-1.7-12.6-3.9-18.8-6.6c-6.2-2.6-12.2-5.5-18.2-8.6c-12-6.2-23.7-13.3-35.2-20.7l-8.6-5.6l-8.6-5.6
			l-8.6-5.6c-1.4-0.9-2.9-1.7-4.4-2.6c-1.5-0.8-2.9-1.7-4.4-2.5c-11.9-6.3-24.6-9.8-37.5-11.3c-6.4-0.8-12.9-1-19.4-1
			c-6.5,0-13,0.2-19.4,0.7c-12.9,0.9-25.8,2.7-38.7,4.8c-12.8,2.2-25.7,4.6-38.5,6.8c-12.8,2.2-25.7,4.6-38.4,7.6
			c-12.7,3-25.4,6.6-37.8,11.2c-12.4,4.6-24.6,10.2-36.4,16.9c-23.6,13.3-45.7,30.3-68.6,45.5c-2.8,1.9-5.8,3.7-8.7,5.5l-4.3,2.7
			c-1.4,0.9-2.9,1.8-4.4,2.6c-5.9,3.3-11.8,6.7-17.9,9.6c-12,6.1-24.3,11.2-36.8,15.8l-9.4,3.2l-2.3,0.8l-2.4,0.7l-4.7,1.4
			c-6.3,2-12.6,3.6-19,5.2c-12.7,3.1-25.5,5.7-38.4,7.6C82.8,323.9,56.9,325.4,31,325.4z"/>
		<path class="st0" d="M30.9,338.4c26.1,0.4,52.2-0.9,78.1-5c13-1.9,25.8-4.6,38.6-7.8l9.6-2.6l2.4-0.6l2.4-0.7l4.7-1.5l4.7-1.5
			l2.4-0.7l2.3-0.8l9.4-3.3c12.5-4.7,24.8-9.9,36.8-16.1c6.1-2.9,12-6.4,17.9-9.7c1.5-0.8,2.9-1.7,4.4-2.6l4.4-2.7
			c2.9-1.8,5.8-3.6,8.7-5.6c22.9-15.3,45.1-32.5,68.6-46.7c11.7-7.1,23.8-13.3,36.1-18.6c12.3-5.3,24.9-9.8,37.5-13.8
			c12.6-4,25.4-7.5,38.1-11.1c12.7-3.5,25.4-7.4,38.1-10.9c12.7-3.5,25.6-6.6,38.6-8.5c6.5-1,13-1.6,19.5-2
			c6.5-0.4,13.1-0.4,19.6,0.2c13,1.2,26,4.9,37.8,12.1c11.8,7.1,22.6,16.3,33.7,24.7c11.1,8.5,22.3,16.8,33.8,24.2
			c5.8,3.7,11.7,7.2,17.6,10.3c6,3.2,12.1,6,18.3,8.2c12.5,4.4,25.5,6.7,38.5,6.9c6.5,0.1,13-0.3,19.5-1.1c6.5-0.8,12.9-2,19.3-3.5
			c6.4-1.5,12.8-3.3,19.1-5.2c6.3-2,12.6-4,18.9-6.3l37.6-13.6l37.6-13.3c12.5-4.4,25.4-8.1,38.4-9.1c6.5-0.5,13.1-0.3,19.6,0.6
			c6.5,0.9,12.9,2.3,19.3,4.2c12.7,3.7,25.1,8.9,37.5,13.9c12.4,5,24.9,9.8,37.3,14.7c12.4,4.9,24.9,9.5,37.5,13.7
			c12.6,4.2,25.4,7.5,38.2,10.5c12.8,3,25.7,5.5,38.7,7.4c25.9,3.7,52.1,4.7,78.1,2.2c-26,2.7-52.2,1.7-78.1-1.9
			c-13-1.8-25.9-4.3-38.7-7.2c-12.8-3-25.6-6.3-38.2-10.4c-12.6-4.1-25.1-8.8-37.6-13.6c-12.4-4.9-24.9-9.7-37.3-14.7
			c-12.4-5-24.8-10.2-37.5-13.8c-12.7-3.7-25.7-5.8-38.7-4.7c-13,1-25.8,4.7-38.3,9.1l-37.6,13.4L810.6,237
			c-6.2,2.3-12.6,4.4-18.9,6.4c-6.3,1.9-12.7,3.7-19.1,5.2c-6.4,1.5-12.9,2.7-19.4,3.5c-6.5,0.8-13,1.2-19.6,1.1
			c-13.1-0.3-26.1-2.5-38.7-6.9c-6.3-2.2-12.5-5-18.5-8.2c-6-3.2-11.9-6.7-17.7-10.4c-11.6-7.4-22.8-15.7-33.9-24.2
			c-11.1-8.4-21.9-17.6-33.6-24.7c-11.6-7.2-24.5-10.8-37.5-12.1c-6.5-0.6-13-0.6-19.5-0.2c-6.5,0.4-13,1-19.5,2
			c-12.9,1.9-25.7,4.9-38.5,8.4c-12.7,3.5-25.4,7.4-38.1,10.9c-12.7,3.5-25.5,7-38.1,11c-12.6,4-25.2,8.5-37.5,13.8
			c-12.3,5.3-24.4,11.5-36.1,18.5c-23.5,14.1-45.6,31.3-68.6,46.6c-2.9,2-5.8,3.7-8.7,5.6l-4.4,2.7c-1.5,0.9-2.9,1.8-4.4,2.6
			c-5.9,3.3-11.8,6.8-17.9,9.7c-12,6.2-24.4,11.4-36.9,16.1l-9.4,3.3l-2.4,0.8l-2.4,0.7l-4.8,1.5l-4.8,1.5l-2.4,0.7l-2.4,0.6
			l-9.6,2.5c-12.8,3.1-25.7,5.8-38.6,7.6C83.1,337.7,57,339,30.9,338.4z"/>
		<path class="st0" d="M30.9,351.4c26.3,1,52.6-0.1,78.7-4.1l4.9-0.7l2.4-0.4l2.4-0.5l9.7-1.8l2.4-0.5l2.4-0.6l4.8-1.1
			c3.2-0.8,6.5-1.4,9.7-2.3l9.6-2.6c1.6-0.4,3.2-0.9,4.8-1.4l4.8-1.5c6.4-1.9,12.7-4.3,19-6.5c12.5-4.9,25-10.1,37-16.5
			c6.1-3,12-6.5,18-9.9c1.5-0.8,2.9-1.8,4.4-2.7l4.4-2.8c2.9-1.9,5.9-3.7,8.7-5.6c23.1-15.5,45.3-33,68.7-47.8
			c11.7-7.4,23.7-14.2,35.9-20.2c12.2-6,24.6-11.4,37.1-16.4c12.5-5,25.1-9.7,37.6-14.5c12.5-4.8,25-10.2,37.5-15
			c6.3-2.4,12.6-4.7,19-6.8c6.4-2,12.8-3.9,19.3-5.3c3.2-0.8,6.5-1.3,9.7-1.9c3.3-0.5,6.5-1,9.8-1.3c6.6-0.8,13.2-1,19.7-0.5
			c13.1,1,26.3,5,37.8,13c2.8,2.1,5.7,4.1,8.5,6.3c2.8,2.2,5.5,4.6,8.1,6.9l15.9,14.4c10.6,9.6,21.3,19.1,32.4,27.7
			c5.6,4.3,11.2,8.4,17.1,12.1c5.8,3.8,11.8,7.1,18,9.8c6.2,2.7,12.5,4.8,18.9,6.4c6.4,1.6,12.9,2.6,19.5,3.1
			c13.1,1,26.2-0.2,39.2-2.6c13-2.4,25.8-6,38.5-10.2c12.7-4.2,25.3-8.8,37.9-13.4l18.9-7c6.3-2.4,12.5-4.9,18.8-7.4
			c12.5-4.9,25.3-9.3,38.5-10.7c6.6-0.6,13.2-0.5,19.7,0.4c6.6,0.8,13,2.4,19.4,4.3c12.8,3.8,25.2,9.2,37.7,14.3
			c6.2,2.6,12.5,5,18.8,7.4l18.8,7.3c12.5,4.8,25.1,9.4,37.9,13.4c12.7,4,25.6,7.1,38.6,9.9c12.9,2.8,26,5.1,39,6.7
			c26.1,3.3,52.5,4.1,78.7,1.7c-26.2,2.5-52.6,1.8-78.7-1.4c-13.1-1.6-26.1-3.9-39.1-6.6c-12.9-2.8-25.9-5.8-38.6-9.8
			c-12.8-3.9-25.4-8.5-37.9-13.3l-18.8-7.3c-6.3-2.4-12.5-4.8-18.8-7.4c-12.5-5.1-24.9-10.4-37.7-14.2c-6.4-1.9-12.8-3.4-19.4-4.2
			c-6.5-0.8-13.1-1-19.6-0.3c-13.1,1.3-25.8,5.7-38.3,10.7c-6.3,2.5-12.5,5-18.8,7.4l-18.9,7c-12.6,4.7-25.2,9.3-37.9,13.5
			c-12.7,4.2-25.5,7.8-38.6,10.2c-13,2.4-26.2,3.6-39.4,2.6c-6.6-0.5-13.1-1.5-19.6-3.1c-6.5-1.6-12.8-3.7-19.1-6.4
			c-6.2-2.7-12.3-6-18.1-9.8c-5.8-3.8-11.5-7.9-17.1-12.2c-11.2-8.6-21.9-18.1-32.5-27.7l-15.9-14.4c-2.7-2.4-5.3-4.7-8.1-6.9
			c-2.7-2.3-5.6-4.2-8.4-6.3c-11.4-8-24.4-12-37.4-12.9c-6.5-0.5-13.1-0.3-19.6,0.5c-3.3,0.3-6.5,0.8-9.8,1.3
			c-3.2,0.6-6.5,1.1-9.7,1.9c-6.5,1.4-12.9,3.2-19.2,5.2c-6.4,2-12.7,4.3-18.9,6.7c-12.5,4.8-25,10.2-37.5,15
			c-12.6,4.8-25.1,9.5-37.6,14.5c-12.5,5-24.9,10.4-37.1,16.4c-12.2,6-24.2,12.7-35.9,20.1c-23.4,14.8-45.6,32.2-68.7,47.7
			c-2.9,2-5.8,3.8-8.7,5.6l-4.4,2.8c-1.5,0.9-2.9,1.9-4.4,2.7c-6,3.4-11.9,6.9-18,9.9c-12.1,6.4-24.6,11.6-37.1,16.5
			c-6.3,2.2-12.6,4.6-19,6.5l-4.8,1.5c-1.6,0.5-3.2,1-4.8,1.4l-9.6,2.6c-3.2,0.9-6.5,1.5-9.7,2.3l-4.8,1.1l-2.4,0.5l-2.4,0.5
			l-9.7,1.8l-2.4,0.5l-2.4,0.4l-4.9,0.7C83.5,351.5,57.2,352.5,30.9,351.4z"/>
		<path class="st0" d="M30.9,364.4c26.5,1.6,53.1,0.8,79.4-3.3c26.3-3.8,52.3-10.8,77.7-20.4c3.2-1.2,6.3-2.6,9.4-3.9
			c3.1-1.3,6.3-2.6,9.4-4.1l9.3-4.3c3.1-1.5,6.1-3.1,9.2-4.7l4.6-2.4c1.5-0.8,3-1.7,4.5-2.6l9-5.2c3-1.8,5.9-3.7,8.9-5.6
			c2.9-1.9,5.9-3.7,8.8-5.7c23.2-15.8,45.6-33.5,68.9-49.1c11.7-7.8,23.6-15.1,35.7-21.8c12.1-6.7,24.4-13,36.7-19
			c12.3-6.1,24.7-11.9,37-18c12.3-6.1,24.4-12.9,36.7-19c12.3-6.2,24.9-11.6,37.8-15.4c6.5-1.9,13-3.5,19.6-4.4
			c6.6-1.1,13.3-1.5,19.9-1.2c3.3,0.2,6.6,0.6,9.9,1.2c3.3,0.7,6.6,1.5,9.8,2.7c3.2,1.2,6.4,2.5,9.4,4.3c1.5,0.8,3,1.8,4.5,2.7
			c1.4,1.1,2.9,2,4.3,3.2c2.8,2.3,5.6,4.4,8.2,7c2.7,2.5,5.3,5,7.8,7.7c5.1,5.3,10.1,10.6,15.1,16c10.1,10.7,20.2,21.3,30.8,31
			c5.3,4.9,10.8,9.5,16.4,13.9c5.6,4.4,11.4,8.2,17.5,11.4c12.2,6.4,25.1,10.5,38.2,12.2c6.6,0.9,13.2,1.2,19.8,1.1
			c6.6-0.1,13.2-0.7,19.8-1.6c13.2-1.8,26.2-5,39-8.9c6.4-1.9,12.8-4,19.2-6.3c6.4-2.2,12.7-4.5,19-7l19-7.3
			c6.3-2.6,12.5-5.4,18.7-8.2c12.5-5.5,25.2-10.7,38.5-12.3c6.6-0.8,13.3-0.8,19.9,0c6.6,0.8,13.2,2.3,19.6,4.3
			c12.9,3.9,25.4,9.4,38,14.6c6.3,2.6,12.6,5,18.9,7.5l19,7.3c12.7,4.8,25.4,9.3,38.3,13.1c12.9,3.9,25.9,6.8,39,9.4
			c13.1,2.6,26.2,4.6,39.4,6.1c26.4,2.9,53,3.5,79.4,1.2c-26.4,2.4-53,2-79.5-0.9c-13.2-1.4-26.4-3.5-39.5-6
			c-13.1-2.6-26.2-5.4-39.1-9.2c-12.9-3.8-25.7-8.3-38.3-13.1l-19-7.3c-6.3-2.4-12.7-4.8-19-7.4c-12.6-5.2-25.1-10.7-38-14.5
			c-6.4-1.9-12.9-3.4-19.5-4.2c-6.6-0.8-13.2-0.8-19.8,0c-13.2,1.7-25.9,6.8-38.3,12.3c-6.2,2.8-12.5,5.6-18.8,8.2l-19,7.4
			c-6.3,2.5-12.7,4.8-19.1,7.1c-6.4,2.2-12.8,4.4-19.2,6.3c-12.9,3.9-25.9,7.1-39.1,8.9c-6.6,0.9-13.2,1.5-19.9,1.6
			c-6.6,0.1-13.3-0.2-19.9-1.1c-13.2-1.8-26.3-5.8-38.5-12.3c-6.1-3.2-12-7-17.7-11.4c-5.6-4.4-11.1-9-16.4-13.9
			c-10.7-9.8-20.8-20.4-30.9-31.1c-5-5.3-10-10.7-15.1-16c-2.5-2.6-5.1-5.2-7.8-7.6c-2.6-2.5-5.4-4.7-8.2-6.9
			c-1.4-1.2-2.8-2.1-4.2-3.1c-1.5-0.9-2.9-1.9-4.4-2.7c-3-1.7-6.1-3.1-9.3-4.2c-3.2-1.2-6.4-2-9.6-2.7c-3.3-0.6-6.5-1-9.8-1.2
			c-6.6-0.4-13.2,0-19.8,1.2c-6.6,0.9-13.1,2.6-19.5,4.4c-12.9,3.8-25.4,9.2-37.7,15.3c-12.3,6.1-24.4,12.9-36.7,19
			c-12.3,6.1-24.7,12-37,18c-24.7,12-49,25-72.3,40.7c-23.3,15.6-45.7,33.2-69,49c-2.9,2-5.9,3.9-8.8,5.7c-3,1.9-5.9,3.8-8.9,5.6
			l-9,5.2c-1.5,0.8-3,1.8-4.5,2.5l-4.6,2.4c-3.1,1.6-6.1,3.2-9.2,4.7l-9.3,4.3c-3.1,1.5-6.2,2.8-9.4,4.1c-3.2,1.3-6.3,2.6-9.5,3.8
			c-25.4,9.6-51.4,16.5-77.8,20.2C83.9,365.4,57.3,366.1,30.9,364.4z"/>
		<path class="st0" d="M30.8,377.4l10,0.7c1.7,0.1,3.3,0.3,5,0.3l5,0.1c3.3,0.1,6.7,0.2,10,0.2l10-0.2c13.4-0.5,26.8-1.5,40.1-3.6
			c26.6-3.8,52.9-11.1,78.4-21l9.5-4l4.8-2l4.7-2.2l9.4-4.4l9.2-4.9l4.6-2.4l4.5-2.6l9.1-5.3l8.9-5.7l4.5-2.9l4.4-3
			c23.4-16.1,46-34,69.3-50.5c23.3-16.5,47.4-31,71.6-45.1c12.1-7.1,24.2-14.1,36.2-21.5c12-7.4,23.6-15.6,35.7-22.9
			c6-3.7,12.1-7.2,18.3-10.4c6.2-3.1,12.5-6,19-8.4c6.5-2.3,13-4.3,19.6-5.6c3.3-0.7,6.7-1.2,10-1.5c3.4-0.3,6.7-0.4,10.1-0.3
			c6.7,0.3,13.4,1.6,19.9,4.1c3.2,1.3,6.3,2.9,9.4,4.7c3,1.9,5.9,4,8.6,6.6c5.6,4.7,10.6,10.3,15.5,16c4.8,5.7,9.6,11.6,14.3,17.4
			c9.5,11.7,19,23.4,29.1,34.3c10.1,10.8,20.6,21.3,32.6,28.6c11.9,7.5,24.8,12.5,38,15.1c6.6,1.3,13.3,2.1,19.9,2.3
			c6.7,0.3,13.4,0.1,20-0.5c13.3-1.2,26.6-3.9,39.6-7.5c13.1-3.6,26-8.1,38.7-13c6.4-2.5,12.7-5.1,19.1-7.8
			c6.3-2.8,12.5-5.9,18.7-8.9c12.4-6.1,25.1-12,38.5-14.1c6.7-1.1,13.4-1.2,20.1-0.4c6.7,0.7,13.3,2.2,19.8,4.2
			c13,3.9,25.7,9.7,38.3,14.9c6.3,2.7,12.7,5.1,19.1,7.5c6.4,2.4,12.8,4.9,19.2,7.3c12.8,4.8,25.7,9.2,38.8,12.9
			c13,3.8,26.3,6.4,39.5,8.8c13.3,2.4,26.6,4.2,39.9,5.5c26.7,2.6,53.6,2.9,80.3,0.7c-26.7,2.3-53.6,2.1-80.3-0.4
			c-13.4-1.3-26.7-3.1-40-5.4c-13.3-2.4-26.5-5-39.6-8.7c-13.1-3.7-26-8.2-38.8-12.9c-6.4-2.4-12.8-4.9-19.2-7.3
			c-6.4-2.4-12.8-4.8-19.2-7.5c-12.7-5.3-25.3-11-38.3-14.9c-6.5-2-13.1-3.4-19.7-4.2c-6.7-0.7-13.4-0.6-20,0.5
			c-13.3,2.1-25.9,8-38.3,14.1c-6.2,3.1-12.4,6.2-18.7,9c-6.3,2.8-12.7,5.4-19.1,7.9c-12.8,4.9-25.7,9.4-38.8,13.1
			c-13.1,3.6-26.4,6.4-39.7,7.6c-6.7,0.6-13.4,0.8-20.1,0.6c-6.7-0.3-13.4-1-20-2.3c-13.3-2.6-26.2-7.7-38.3-15.2
			c-6-3.8-11.8-8.1-17.1-13.1c-5.4-4.9-10.6-10.2-15.7-15.6c-10.1-10.9-19.6-22.6-29.1-34.3c-4.7-5.8-9.5-11.7-14.3-17.4
			c-4.8-5.7-9.8-11.3-15.3-15.9c-2.7-2.5-5.5-4.6-8.5-6.5c-3-1.8-6.1-3.4-9.2-4.7c-6.3-2.5-13-3.8-19.6-4.1c-3.3-0.1-6.7-0.1-10,0.2
			c-3.3,0.3-6.6,0.8-9.9,1.5c-6.6,1.3-13.1,3.3-19.5,5.5c-6.4,2.3-12.7,5.2-18.9,8.3c-6.2,3.1-12.2,6.7-18.2,10.3
			c-12,7.3-23.7,15.4-35.7,22.9c-12,7.4-24.1,14.4-36.2,21.5c-24.2,14.1-48.4,28.5-71.6,45c-23.3,16.4-45.8,34.3-69.3,50.4l-4.4,3
			l-4.5,2.9l-8.9,5.7l-9.1,5.3l-4.6,2.6l-4.6,2.4l-9.3,4.8l-9.4,4.4l-4.7,2.2l-4.8,2l-9.5,4c-25.6,9.8-51.9,17-78.5,20.7
			c-13.3,2-26.7,3-40.1,3.5l-10,0.1c-3.3,0-6.7-0.2-10-0.2l-5-0.1c-1.7-0.1-3.3-0.2-5-0.3L30.8,377.4z"/>
		<path class="st0" d="M30.8,390.4c54,6,108.9-2.6,160.4-23.3c25.7-10.6,50.7-24,74.3-40.5c23.6-16.4,46.4-34.7,69.6-52
			c23.2-17.3,47.1-33.3,70.8-49.5c11.9-8.1,23.7-16.3,35.3-25c11.6-8.7,22.8-18.1,34.5-26.6c5.8-4.3,11.8-8.3,17.9-12
			c6.1-3.7,12.4-6.9,18.8-9.8c6.4-2.8,13-5,19.6-6.7c6.7-1.6,13.5-2.6,20.3-2.3c1.7,0,3.4,0.2,5.1,0.4c1.7,0.3,3.4,0.4,5.1,0.9
			c3.4,0.7,6.7,1.8,9.9,3.1c3.2,1.3,6.3,3.2,9.3,5.2l2.2,1.6c0.7,0.5,1.4,1.2,2.1,1.8c1.4,1.1,2.7,2.5,4.1,3.8c1.3,1.3,2.7,2.6,4,4
			c1.3,1.4,2.5,2.8,3.7,4.3c2.4,2.9,4.8,6,7.1,9.1c4.6,6.2,9,12.5,13.5,18.9c8.9,12.7,17.7,25.4,27.2,37.3
			c9.5,11.9,19.4,23.5,31.1,31.9c11.6,8.5,24.4,14.6,37.6,18.1c13.2,3.6,26.8,4.7,40.3,4.2c13.5-0.5,27-2.7,40.3-6
			c13.3-3.3,26.4-7.7,39.3-12.7c6.5-2.5,12.9-5.3,19.2-8.2c6.3-3,12.5-6.3,18.7-9.7c12.4-6.7,25-13.4,38.5-16.1
			c6.7-1.3,13.6-1.6,20.3-1c6.8,0.6,13.5,2.1,20.1,4.1c13.2,4,25.9,9.9,38.8,15.3c6.4,2.7,12.9,5.2,19.4,7.6
			c6.5,2.4,13,4.9,19.5,7.3c13,4.8,26.1,9.2,39.3,12.8c13.2,3.7,26.6,6.1,40.1,8.3c13.4,2.2,26.9,3.8,40.4,5
			c27,2.2,54.2,2.3,81.3,0.2c-27,2.2-54.2,2.2-81.3,0.1c-13.5-1.1-27-2.7-40.5-4.8c-13.4-2.2-26.9-4.6-40.1-8.2
			c-13.3-3.6-26.3-8-39.4-12.7c-6.5-2.4-13-4.9-19.5-7.3c-6.5-2.4-13-4.9-19.4-7.6c-12.8-5.4-25.6-11.3-38.7-15.2
			c-6.6-2-13.3-3.4-20-4c-6.7-0.6-13.5-0.3-20.2,1c-13.4,2.7-25.9,9.3-38.3,16.1c-6.2,3.4-12.4,6.8-18.8,9.7
			c-6.3,3-12.8,5.7-19.2,8.3c-12.9,5.1-26,9.5-39.3,12.8c-13.3,3.3-26.8,5.5-40.4,6.1c-13.6,0.5-27.2-0.6-40.5-4.2
			c-13.3-3.6-26.2-9.6-37.9-18.2c-5.8-4.3-11.4-9.2-16.5-14.8c-5.1-5.5-10.1-11.3-14.8-17.3c-9.5-12-18.4-24.7-27.3-37.4
			c-4.4-6.3-8.9-12.7-13.4-18.9c-2.3-3.1-4.6-6.1-7-9c-1.2-1.5-2.4-2.9-3.7-4.3c-1.3-1.4-2.6-2.6-3.9-3.9c-1.3-1.3-2.6-2.6-4-3.8
			c-0.7-0.6-1.4-1.2-2.1-1.7l-2.2-1.6c-2.9-2-6-3.8-9.2-5.1c-3.2-1.4-6.4-2.4-9.8-3.1c-1.7-0.4-3.3-0.6-5-0.9
			c-1.7-0.1-3.4-0.4-5-0.4c-13.5-0.5-26.9,3.6-39.6,9c-6.4,2.8-12.6,6.1-18.7,9.7c-6.1,3.7-12,7.7-17.8,12
			c-11.7,8.5-22.9,17.9-34.5,26.6c-11.6,8.7-23.4,16.9-35.3,25c-23.8,16.2-47.6,32.1-70.9,49.4c-23.3,17.2-46,35.5-69.7,51.9
			c-23.6,16.5-48.6,29.9-74.4,40.4C139.8,388.2,84.8,396.6,30.8,390.4z"/>
		<path class="st0" d="M30.8,403.4l10.3,1.1c1.7,0.2,3.4,0.4,5.1,0.5l5.1,0.3l5.1,0.3c1.7,0.1,3.4,0.2,5.1,0.2l10.3,0.1
			c0.9,0,1.7,0,2.6,0l2.6-0.1l5.1-0.2c3.4-0.2,6.9-0.2,10.3-0.6l10.3-0.9c3.4-0.4,6.8-0.9,10.2-1.4l5.1-0.7l5.1-1l10.2-1.9l10.1-2.4
			c1.7-0.4,3.4-0.8,5-1.2l5-1.4c13.4-3.6,26.6-8.5,39.6-13.7l9.7-4.2l2.4-1.1l2.4-1.2l4.8-2.3l4.8-2.3l2.4-1.2l2.4-1.3l9.4-5.1
			c1.6-0.8,3.1-1.7,4.7-2.7l4.6-2.7c3.1-1.9,6.2-3.6,9.2-5.6l9.1-5.9c1.5-1,3-2,4.5-3c1.5-1,3-2.1,4.5-3.1
			c23.9-16.8,46.8-35.5,70.1-53.6c23.2-18.2,46.8-35.7,69.9-54c11.6-9.2,23-18.5,34.1-28.5c11.1-10,21.9-20.5,33.3-30.1
			c5.7-4.8,11.5-9.4,17.5-13.6c6-4.2,12.2-7.9,18.6-11.2c6.4-3.3,13-5.7,19.7-7.8c3.4-1,6.8-1.7,10.2-2.3c3.4-0.5,6.9-0.8,10.3-0.7
			c6.9,0.2,13.8,1.6,20.3,4.7c6.5,2.9,12.4,7.8,17.6,13.4c5.2,5.6,9.8,12.1,14.1,18.7c4.3,6.7,8.5,13.4,12.6,20.2
			c8.3,13.6,16.4,27.2,25.3,40.2c4.4,6.5,9,12.8,13.9,18.8c2.4,3,4.9,5.9,7.5,8.6c2.6,2.7,5.3,5.3,8.2,7.7c5.6,4.8,11.6,9,17.8,12.5
			c6.2,3.5,12.7,6.5,19.3,8.7c13.2,4.6,26.9,6.6,40.6,6.8c13.7,0.2,27.4-1.4,40.9-4.4c13.5-2.9,26.8-7.2,39.9-12.4
			c6.5-2.6,13-5.4,19.4-8.6c6.4-3.1,12.6-6.7,18.8-10.4c6.2-3.7,12.4-7.4,18.8-10.6c6.4-3.2,12.9-5.9,19.7-7.6
			c6.8-1.7,13.7-2.2,20.6-1.8c6.9,0.5,13.7,1.9,20.4,3.8c13.4,4,26.3,10,39.2,15.5c6.5,2.8,13,5.3,19.6,7.7c6.6,2.4,13.1,5,19.7,7.4
			c13.2,4.8,26.4,9.2,39.9,12.7c13.4,3.6,27,5.8,40.7,7.8c13.6,2,27.3,3.4,41,4.4c27.4,1.9,54.9,1.8,82.3-0.3
			c-27.4,2.1-54.9,2.4-82.4,0.6c-13.7-0.9-27.4-2.3-41.1-4.3c-13.6-2-27.3-4.2-40.7-7.7c-13.5-3.5-26.7-7.9-39.9-12.6
			c-6.6-2.4-13.2-4.9-19.7-7.3c-6.6-2.4-13.2-4.9-19.6-7.7c-13-5.5-25.9-11.5-39.2-15.5c-6.7-2-13.4-3.4-20.3-3.8
			c-6.8-0.4-13.7,0.1-20.4,1.8c-6.7,1.7-13.2,4.4-19.6,7.6c-6.3,3.2-12.5,6.9-18.7,10.6c-6.2,3.7-12.4,7.3-18.8,10.5
			c-6.4,3.1-12.9,6-19.4,8.6c-13.1,5.2-26.4,9.5-40,12.4c-13.5,3-27.3,4.6-41.1,4.5c-13.8-0.2-27.5-2.2-40.8-6.8
			c-6.6-2.2-13.1-5.2-19.4-8.7c-6.3-3.5-12.3-7.7-18-12.6c-2.9-2.4-5.6-5-8.2-7.7c-2.6-2.8-5.2-5.6-7.6-8.7
			c-4.9-6-9.5-12.3-13.9-18.8c-8.9-13-17.1-26.7-25.4-40.2c-4.1-6.8-8.3-13.5-12.6-20.2c-4.3-6.6-8.8-13-13.9-18.6
			c-5.1-5.6-10.9-10.3-17.3-13.2c-6.4-3-13.2-4.4-20-4.6c-3.4-0.1-6.8,0.2-10.2,0.6c-3.4,0.5-6.8,1.2-10.1,2.2
			c-6.6,2.1-13.2,4.5-19.5,7.8c-6.3,3.2-12.5,6.9-18.5,11.1c-6,4.2-11.8,8.7-17.4,13.5c-11.3,9.6-22.1,20.1-33.3,30.1
			c-11.2,10-22.6,19.3-34.2,28.5c-23.2,18.3-46.7,35.7-70,53.9c-23.2,18.1-46.2,36.8-70.1,53.6c-1.5,1.1-3,2.1-4.5,3.1
			c-1.5,1-3,2.1-4.5,3l-9.1,5.9c-3,2-6.2,3.8-9.3,5.6l-4.7,2.7c-1.5,0.9-3.1,1.8-4.7,2.7l-9.5,5.1l-2.4,1.3l-2.4,1.2l-4.8,2.3
			l-4.8,2.3l-2.4,1.2l-2.4,1l-9.7,4.2c-13.1,5.2-26.3,10-39.7,13.6l-5,1.4c-1.7,0.5-3.4,0.8-5.1,1.2l-10.1,2.4l-10.2,1.9l-5.1,0.9
			l-5.1,0.7c-3.4,0.5-6.8,1-10.2,1.4l-10.3,0.9c-3.4,0.4-6.9,0.4-10.3,0.6l-5.1,0.2l-2.6,0.1c-0.9,0-1.7,0-2.6,0l-10.3-0.1
			c-1.7,0-3.4-0.1-5.1-0.2l-5.1-0.3l-5.1-0.3c-1.7-0.1-3.4-0.4-5.1-0.5L30.8,403.4z"/>
		<path class="st0" d="M30.8,416.4l10.4,1.3c1.7,0.2,3.5,0.5,5.2,0.6l5.2,0.4l5.2,0.4l2.6,0.2c0.9,0.1,1.7,0,2.6,0.1l10.4,0.2
			c1.7,0.1,3.5,0,5.2-0.1l5.2-0.2l5.2-0.2c1.7,0,3.5-0.3,5.2-0.4l10.4-0.9l10.4-1.4c1.7-0.3,3.5-0.4,5.2-0.8l5.2-1
			c3.4-0.7,6.9-1.2,10.3-2c6.8-1.7,13.7-3.1,20.4-5.2l5.1-1.5l2.5-0.7l2.5-0.9l10.1-3.4c1.7-0.5,3.3-1.2,5-1.9l5-1.9
			c3.3-1.3,6.7-2.5,9.9-4l9.8-4.3c3.3-1.5,6.5-3.1,9.7-4.7l4.9-2.4c1.6-0.8,3.2-1.7,4.8-2.6l9.6-5.2l9.4-5.6l4.7-2.8l4.6-3l9.2-6
			c3-2.1,6.1-4.2,9.1-6.3c24.1-17.2,47.3-36.4,70.5-55.5c23.1-19.2,46.3-38.3,68.8-58.7c11.2-10.2,22.3-20.7,32.9-31.8
			c10.6-11.1,21-22.7,31.9-33.4c5.5-5.4,11.1-10.4,17-15.1c5.8-4.7,12-8.9,18.3-12.5c6.3-3.7,13-6.5,19.7-8.9
			c6.7-2.3,13.7-3.5,20.8-3.5c3.5,0.1,7,0.5,10.5,1.3c3.4,0.9,6.8,2,10.1,3.7c6.5,3.3,12.3,8.5,17.3,14.6c5,6.1,9.3,13,13.3,20
			c4,7.1,7.9,14.2,11.7,21.5c7.6,14.4,15.1,29,23.3,42.9c4.1,6.9,8.4,13.7,12.9,20.2c4.5,6.5,9.5,12.6,14.9,17.9
			c5.4,5.3,11.2,10.1,17.3,14.2c6.1,4.1,12.5,7.5,19.1,10.3c13.2,5.5,27,8.6,40.8,9.5c13.9,1,27.8-0.1,41.6-2.6
			c13.8-2.5,27.3-6.6,40.6-11.9c6.6-2.6,13.2-5.6,19.6-8.9c6.4-3.3,12.7-7.1,18.9-11c6.2-4,12.3-8,18.7-11.6
			c6.3-3.6,12.9-6.7,19.7-8.8c3.4-1.1,6.9-1.8,10.3-2.2c1.7-0.2,3.5-0.3,5.2-0.4c1.7-0.1,3.5,0,5.2,0c7,0.3,13.9,1.6,20.7,3.5
			c13.6,3.9,26.7,10.1,39.8,15.8c6.6,2.9,13.2,5.4,19.9,7.9c6.7,2.5,13.3,5,20,7.4c13.4,4.8,26.9,9.1,40.5,12.6
			c13.6,3.5,27.5,5.6,41.3,7.4c13.9,1.8,27.7,3.1,41.7,3.9c27.8,1.6,55.7,1.2,83.5-0.7c-27.8,2-55.7,2.5-83.5,1
			c-13.9-0.7-27.8-2-41.7-3.7c-13.9-1.8-27.7-3.8-41.4-7.3c-13.7-3.4-27.2-7.8-40.6-12.5c-6.7-2.4-13.4-4.9-20-7.4
			c-6.7-2.4-13.3-5-19.9-7.9c-13.2-5.7-26.2-11.9-39.8-15.7c-6.8-1.9-13.7-3.2-20.6-3.5c-1.7,0-3.5-0.1-5.2,0
			c-1.7,0.2-3.5,0.2-5.2,0.4c-3.4,0.5-6.9,1.2-10.2,2.2c-6.7,2-13.3,5.1-19.6,8.7c-6.3,3.6-12.5,7.7-18.6,11.6
			c-6.2,4-12.4,7.8-18.9,11.1c-6.4,3.3-13,6.3-19.6,8.9c-13.3,5.3-26.9,9.4-40.7,11.9c-13.8,2.5-27.8,3.6-41.7,2.6
			c-13.9-0.9-27.8-4-41.1-9.5c-6.6-2.8-13-6.3-19.2-10.3c-6.2-4.1-12-8.9-17.5-14.3c-5.5-5.4-10.5-11.5-15-18
			c-4.6-6.5-8.9-13.3-13-20.3c-8.2-13.9-15.8-28.5-23.4-42.9c-3.8-7.2-7.7-14.4-11.7-21.4c-4-7-8.2-13.9-13.2-19.9
			c-4.9-6-10.6-11.1-17-14.4c-3.2-1.7-6.5-2.8-9.9-3.7c-3.4-0.8-6.8-1.2-10.3-1.3c-6.9,0-13.8,1.2-20.5,3.4
			c-6.7,2.4-13.3,5.1-19.5,8.8c-6.3,3.6-12.4,7.7-18.2,12.4c-5.8,4.6-11.5,9.7-17,15c-11,10.6-21.3,22.2-31.9,33.3
			c-10.6,11.1-21.7,21.7-33,31.8c-22.5,20.4-45.7,39.4-68.9,58.6c-23.2,19.1-46.4,38.3-70.6,55.4c-3,2.1-6.1,4.3-9.1,6.3l-9.3,6
			l-4.6,3l-4.7,2.8l-9.4,5.6l-9.6,5.2c-1.6,0.9-3.2,1.8-4.8,2.6l-4.9,2.4c-3.2,1.6-6.5,3.2-9.7,4.7l-9.9,4.3c-3.3,1.5-6.6,2.7-9.9,4
			l-5,1.9c-1.7,0.6-3.3,1.3-5,1.8l-10.1,3.4l-2.5,0.8l-2.5,0.7l-5.1,1.5c-6.8,2.1-13.6,3.5-20.5,5.2c-3.4,0.8-6.9,1.3-10.3,2l-5.2,1
			c-1.7,0.3-3.5,0.5-5.2,0.7l-10.4,1.4l-10.4,0.9c-1.7,0.1-3.5,0.3-5.2,0.4l-5.2,0.2l-5.2,0.2c-1.7,0.1-3.5,0.1-5.2,0.1L62,419.4
			c-0.9,0-1.7,0-2.6-0.1l-2.6-0.2l-5.2-0.4l-5.2-0.4c-1.7-0.1-3.5-0.4-5.2-0.6L30.8,416.4z"/>
		<path class="st0" d="M30.7,429.4l10.5,1.6l2.6,0.4l1.3,0.2l1.3,0.1l5.3,0.5l5.3,0.5l2.6,0.2l2.7,0.1l10.6,0.3
			c1.8,0.1,3.5,0,5.3-0.1l5.3-0.1l5.3-0.1c1.8-0.1,3.5-0.3,5.3-0.4c3.5-0.3,7.1-0.5,10.6-0.9l10.5-1.4c14-2.2,28-5.1,41.7-9.3
			l5.2-1.5c1.7-0.5,3.4-1.1,5.1-1.7l10.2-3.5l10.1-4l5-2l5-2.2c3.3-1.5,6.7-2.9,10-4.5l9.8-4.9c1.6-0.8,3.3-1.6,4.9-2.5l4.8-2.7
			c3.2-1.8,6.5-3.5,9.7-5.4c6.3-3.8,12.8-7.5,18.9-11.8c3.1-2.1,6.3-4,9.3-6.2c3.1-2.1,6.2-4.3,9.2-6.5
			c24.4-17.7,47.8-37.4,70.9-57.6c23.1-20.2,45.8-41.1,67.5-63.5c5.4-5.6,10.8-11.3,16-17.2c2.6-2.9,5.2-5.9,7.8-8.8
			c2.6-3,5.1-6,7.7-9.1c10.1-12.2,20-24.8,30.6-36.4c2.6-2.9,5.4-5.7,8.1-8.5c2.8-2.7,5.6-5.4,8.5-7.9c2.8-2.6,5.9-4.9,8.8-7.3
			c1.5-1.1,3.1-2.2,4.6-3.3c0.8-0.5,1.5-1.1,2.3-1.6l2.4-1.5l2.4-1.5c0.8-0.5,1.6-1,2.4-1.4l4.9-2.6c0.8-0.5,1.6-0.8,2.5-1.2
			l2.5-1.1c1.7-0.7,3.3-1.5,5-2.1c1.7-0.7,3.4-1.2,5.1-1.7c0.9-0.3,1.7-0.4,2.6-0.7c0.9-0.2,1.7-0.4,2.6-0.6c3.5-0.8,7.1-1,10.6-1.1
			c3.6,0,7.1,0.5,10.6,1.3c3.5,0.9,6.9,2.3,10.2,4c3.2,1.9,6.3,4.1,9.2,6.8c0.7,0.6,1.4,1.4,2.1,2.1c0.7,0.7,1.4,1.4,2,2.2
			c1.3,1.5,2.6,3.1,3.8,4.7c4.8,6.5,8.8,13.8,12.6,21.2c3.7,7.5,7.3,15,10.8,22.6c7,15.2,13.8,30.6,21.4,45.3
			c3.8,7.4,7.7,14.6,12,21.6c4.2,7,8.9,13.6,14.1,19.5c10.4,11.8,22.5,21.2,35.6,27.7c13,6.7,26.9,10.6,40.9,12.5
			c14,1.8,28.2,1.5,42.2-0.6c14-2.1,27.9-5.9,41.3-11.2c6.7-2.6,13.4-5.7,19.9-9.1c6.5-3.4,12.8-7.4,19-11.6
			c6.2-4.2,12.3-8.6,18.6-12.6c6.3-4,12.8-7.6,19.6-10.1c1.7-0.6,3.4-1.2,5.2-1.6l2.6-0.7c0.9-0.2,1.8-0.3,2.6-0.5
			c0.9-0.1,1.8-0.3,2.6-0.4l2.7-0.2l2.7-0.2l2.7,0c7.1,0,14.2,1.1,21.1,3c13.9,3.7,27.1,10.1,40.4,16c6.7,3,13.4,5.6,20.2,8.1
			l20.3,7.5c13.6,4.8,27.3,9.2,41.2,12.5c6.9,1.7,13.9,3.1,20.9,4.2l10.5,1.5c3.5,0.4,7,0.9,10.6,1.3c14.1,1.6,28.2,2.7,42.3,3.3
			c28.3,1.3,56.6,0.6,84.8-1.2c-28.2,1.9-56.5,2.7-84.8,1.5c-14.1-0.6-28.3-1.6-42.4-3.2c-3.5-0.4-7-0.8-10.6-1.3l-10.5-1.5
			c-7-1.1-14-2.4-21-4.1c-13.9-3.3-27.6-7.7-41.2-12.5l-20.3-7.4c-6.8-2.4-13.5-5.1-20.2-8c-13.3-5.8-26.6-12.2-40.4-15.9
			c-6.9-1.8-13.9-3-21-3l-2.6,0l-2.6,0.2l-2.6,0.2c-0.9,0.1-1.7,0.3-2.6,0.4c-0.9,0.2-1.7,0.3-2.6,0.5l-2.6,0.7
			c-1.7,0.4-3.4,1.1-5.1,1.6c-6.8,2.4-13.2,6.1-19.5,10c-6.3,4-12.4,8.4-18.6,12.6c-6.2,4.3-12.5,8.3-19,11.7
			c-6.5,3.4-13.2,6.5-19.9,9.1c-13.5,5.3-27.4,9.2-41.4,11.3c-14.1,2.1-28.3,2.4-42.4,0.6c-14.1-1.8-28.1-5.8-41.2-12.5
			c-13.1-6.6-25.4-16-35.9-27.9c-5.2-6-9.9-12.6-14.2-19.6c-4.3-7-8.3-14.3-12.1-21.7c-7.6-14.8-14.4-30.2-21.4-45.3
			c-3.5-7.6-7.1-15.2-10.8-22.6c-3.7-7.4-7.7-14.7-12.4-21.1c-1.2-1.6-2.4-3.1-3.7-4.6c-0.6-0.8-1.3-1.4-2-2.1
			c-0.7-0.7-1.3-1.4-2-2.1c-2.8-2.6-5.8-4.8-9-6.7c-3.2-1.7-6.5-3.1-10-4c-3.4-0.8-6.9-1.3-10.4-1.3c-3.5,0-7,0.3-10.5,1
			c-0.9,0.1-1.7,0.3-2.6,0.6c-0.9,0.2-1.7,0.4-2.6,0.7c-1.7,0.5-3.4,1-5.1,1.7c-1.7,0.6-3.3,1.3-5,2.1l-2.5,1.1
			c-0.8,0.4-1.7,0.7-2.5,1.2l-4.9,2.6c-0.8,0.4-1.6,0.9-2.4,1.4l-2.4,1.5l-2.4,1.5c-0.8,0.5-1.5,1.1-2.3,1.6
			c-1.5,1.1-3.1,2.2-4.6,3.3c-3,2.4-6,4.7-8.8,7.3c-2.9,2.5-5.6,5.2-8.4,7.9c-2.7,2.8-5.5,5.5-8.1,8.5
			c-10.6,11.5-20.5,24.1-30.6,36.3c-2.5,3.1-5.1,6.1-7.7,9.1c-2.6,3-5.2,6-7.8,8.9c-5.3,5.9-10.6,11.6-16.1,17.2
			c-21.8,22.4-44.6,43.2-67.6,63.4c-23.1,20.2-46.5,39.9-71,57.5c-3.1,2.2-6.1,4.4-9.2,6.5c-3.1,2.2-6.2,4.1-9.4,6.2
			c-6.2,4.2-12.6,7.9-19,11.7c-3.2,1.9-6.5,3.6-9.7,5.4l-4.9,2.7c-1.6,0.9-3.3,1.7-4.9,2.5l-9.9,4.9c-3.3,1.5-6.7,3-10,4.5l-5,2.2
			l-5.1,2l-10.1,3.9l-10.2,3.5c-1.7,0.6-3.4,1.2-5.1,1.7l-5.2,1.5c-13.7,4.2-27.7,7-41.8,9.2l-10.6,1.4c-3.5,0.4-7.1,0.6-10.6,0.9
			c-1.8,0.1-3.5,0.3-5.3,0.4l-5.3,0.1l-5.3,0.1c-1.8,0-3.5,0.1-5.3,0L62.4,433l-2.7-0.1l-2.6-0.2l-5.3-0.5l-5.3-0.5l-1.3-0.1
			l-1.3-0.2l-2.6-0.4L30.7,429.4z"/>
		<path class="st0" d="M30.7,442.3c14.2,2.7,28.5,4.2,42.9,4.5c3.6,0.1,7.2-0.1,10.8-0.1c1.8,0,3.6,0,5.4-0.1l5.4-0.4l5.4-0.4
			c1.8-0.2,3.6-0.2,5.4-0.5l10.7-1.4l2.7-0.4l2.7-0.5l5.3-1c3.5-0.7,7.1-1.3,10.6-2.2l10.6-2.6c3.5-1,7-2,10.5-3.1
			c1.7-0.5,3.5-1,5.2-1.6l5.2-1.8c3.5-1.2,6.9-2.3,10.4-3.7c6.8-2.8,13.7-5.3,20.4-8.5c27.1-12,52.9-27.8,77.7-45.8
			c24.7-18.2,48.3-38.5,71.3-59.9c22.9-21.4,45.2-44,66.1-68.4c5.2-6.1,10.3-12.3,15.4-18.7c5-6.4,9.9-12.9,14.7-19.5
			c9.6-13.2,19-26.7,29.3-39.1c5.2-6.2,10.5-12.3,16.1-17.7l2.1-2.1l2.2-2c1.5-1.3,2.9-2.6,4.4-3.9c3-2.4,6-4.9,9.2-7
			c3.1-2.3,6.4-4.1,9.6-6.1c1.6-0.9,3.3-1.7,5-2.5l2.5-1.2l2.6-1.1c0.9-0.4,1.7-0.7,2.6-1c0.9-0.3,1.7-0.6,2.6-0.9
			c1.8-0.5,3.5-1.1,5.3-1.4c1.8-0.4,3.6-0.7,5.4-0.9c0.9-0.1,1.8-0.1,2.7-0.2l1.4-0.1l1.4,0c7.2-0.1,14.5,1.8,21.1,5.8l2.4,1.5
			l2.3,1.8c0.4,0.3,0.8,0.6,1.1,0.9l1.1,1c0.7,0.7,1.5,1.3,2.2,2.1c1.3,1.5,2.7,3,4,4.6c1.3,1.6,2.5,3.3,3.6,5
			c4.6,6.9,8.4,14.6,11.8,22.4c3.4,7.8,6.7,15.8,9.9,23.7c6.4,15.9,12.5,32,19.4,47.6c3.5,7.8,7.1,15.4,11.1,22.8
			c3.9,7.4,8.2,14.5,13.2,21c9.8,13,21.7,23.3,34.5,31.1c12.9,7.7,26.8,12.8,41,15.5c28.4,5.4,57.6,1.8,85-8.6
			c6.9-2.6,13.6-5.7,20.2-9.2c1.6-0.9,3.3-1.8,4.9-2.7c1.6-1,3.2-1.9,4.8-2.9c3.2-2,6.3-4.2,9.4-6.4c6.2-4.5,12.3-9.2,18.5-13.6
			c6.3-4.4,12.7-8.4,19.5-11.4c0.8-0.4,1.7-0.7,2.6-1l2.6-1c1.7-0.6,3.5-1.1,5.3-1.5l2.7-0.5c0.9-0.2,1.8-0.4,2.7-0.4l2.7-0.3
			c0.9-0.1,1.8-0.2,2.7-0.2c7.2-0.3,14.4,0.6,21.5,2.4c14.1,3.5,27.6,10.1,41.1,16.1c6.8,3,13.6,5.9,20.5,8.3l20.7,7.5
			c13.8,4.8,27.8,9.2,41.9,12.5c14.1,3.4,28.4,5.2,42.7,6.6c14.3,1.4,28.7,2.3,43,2.8c28.7,0.9,57.5,0.1,86.2-1.7
			c-28.7,1.8-57.5,2.8-86.2,2c-14.4-0.4-28.7-1.3-43.1-2.6c-14.3-1.4-28.7-3.1-42.8-6.5c-14.1-3.3-28.1-7.7-41.9-12.5l-20.7-7.5
			c-6.9-2.4-13.8-5.2-20.5-8.3c-13.5-6-26.9-12.5-41-16c-7-1.7-14.2-2.7-21.3-2.3c-0.9,0-1.8,0.1-2.7,0.2l-2.7,0.3
			c-0.9,0.1-1.8,0.3-2.7,0.4l-2.6,0.5c-1.7,0.5-3.5,1-5.2,1.5l-2.6,1c-0.9,0.3-1.7,0.6-2.5,1c-6.8,3-13.2,7-19.4,11.3
			c-6.2,4.4-12.3,9.1-18.5,13.6c-3.1,2.3-6.3,4.4-9.4,6.5c-1.6,1-3.2,2-4.9,2.9c-1.6,0.9-3.3,1.8-4.9,2.7
			c-6.6,3.5-13.4,6.6-20.2,9.3c-27.5,10.5-56.9,14.2-85.4,8.8c-14.2-2.7-28.2-7.8-41.2-15.5c-13-7.8-25-18.2-34.8-31.3
			c-0.6-0.8-1.2-1.6-1.8-2.4l-1.8-2.5c-1.2-1.7-2.3-3.5-3.4-5.2c-1.1-1.8-2.1-3.6-3.2-5.4l-3-5.5c-4-7.4-7.6-15.1-11.1-22.9
			c-6.9-15.6-13.1-31.7-19.5-47.6c-3.2-8-6.5-15.9-9.9-23.7c-3.4-7.8-7.1-15.4-11.7-22.2c-1.1-1.7-2.3-3.3-3.6-4.9
			c-1.2-1.6-2.6-3-3.9-4.5c-0.7-0.7-1.4-1.3-2.1-2l-1.1-1c-0.4-0.3-0.7-0.6-1.1-0.9l-2.3-1.8l-2.4-1.5c-6.4-3.9-13.5-5.7-20.6-5.7
			l-1.3,0l-1.3,0.1c-0.9,0.1-1.8,0.1-2.7,0.2c-1.8,0.3-3.5,0.5-5.3,0.9c-1.8,0.3-3.5,0.9-5.2,1.4c-0.9,0.3-1.7,0.6-2.6,0.9
			c-0.9,0.3-1.7,0.6-2.6,1l-2.5,1.1l-2.5,1.2c-1.7,0.8-3.3,1.6-5,2.5c-3.2,1.9-6.5,3.7-9.6,6c-3.2,2.1-6.1,4.6-9.1,7
			c-1.5,1.2-2.9,2.6-4.4,3.9l-2.2,2l-2.1,2.1c-5.7,5.4-10.9,11.5-16.1,17.7c-10.3,12.4-19.7,25.9-29.3,39.1
			c-4.8,6.6-9.7,13.1-14.7,19.5c-5,6.4-10.2,12.6-15.4,18.7c-20.9,24.4-43.2,47-66.2,68.4c-23,21.4-46.6,41.7-71.4,59.9
			c-24.8,18-50.7,33.8-77.8,45.8c-6.7,3.2-13.6,5.7-20.5,8.5c-3.4,1.3-6.9,2.4-10.4,3.6l-5.2,1.8c-1.7,0.6-3.5,1-5.2,1.6
			c-3.5,1-7,2.1-10.5,3l-10.6,2.5c-3.5,0.9-7.1,1.5-10.6,2.2l-5.3,1l-2.7,0.5l-2.7,0.4l-10.7,1.4c-1.8,0.3-3.6,0.3-5.4,0.5l-5.4,0.4
			l-5.4,0.4c-1.8,0.1-3.6,0.1-5.4,0.1c-3.6,0-7.2,0.2-10.8,0.1C59.2,446.7,44.9,445,30.7,442.3z"/>
		<path class="st0" d="M30.7,455.3c14.4,3,29,4.8,43.6,5.2c3.7,0,7.3-0.1,11-0.1c1.8,0,3.7,0,5.5-0.1l5.5-0.4l5.5-0.4l2.7-0.2
			c0.9-0.1,1.8-0.2,2.7-0.3l10.9-1.4c29-4.6,57.5-13.6,84.8-26.4l5.1-2.3c1.7-0.8,3.4-1.7,5.1-2.5l10.1-5.2l10-5.6
			c1.7-0.9,3.3-1.8,5-2.8l4.9-3c3.3-2,6.6-4,9.8-6.1l9.7-6.4c6.4-4.3,12.7-8.8,19-13.5c25-18.7,48.8-39.8,71.6-62.5
			c22.8-22.7,44.4-47.1,64.4-73.4c10-13.2,19.5-26.9,28.6-41.1c4.6-7.1,9.1-14.2,13.7-21.2c4.6-7,9.4-13.9,14.3-20.6
			c10-13.2,20.8-25.6,33.4-35.1l2.3-1.8c0.8-0.6,1.6-1.1,2.4-1.6l4.9-3.2l5-2.8c0.8-0.4,1.7-0.9,2.5-1.4l2.6-1.2
			c3.5-1.5,7-2.8,10.6-3.7c1.8-0.5,3.6-0.7,5.4-1.1c1.8-0.2,3.7-0.4,5.5-0.4c1.8-0.1,3.7,0.1,5.5,0.3c1.8,0.3,3.7,0.6,5.5,1.2
			c1.8,0.4,3.6,1.2,5.3,1.9c1.7,0.9,3.4,1.7,5,2.9c0.8,0.6,1.7,1,2.4,1.7l2.3,1.9c0.8,0.6,1.5,1.4,2.2,2.1c0.7,0.7,1.5,1.4,2.1,2.2
			c2.7,3.1,5.2,6.5,7.4,10.2c4.4,7.3,7.9,15.4,11.1,23.5c3.2,8.2,6.1,16.4,9,24.7c5.8,16.6,11.3,33.4,17.6,49.7
			c3.1,8.2,6.5,16.2,10.1,24c3.6,7.8,7.5,15.5,12.2,22.4c9.3,13.9,20.7,25.6,33.4,34.4c12.7,8.9,26.6,15,40.8,18.7
			c14.3,3.6,28.9,5,43.5,4c14.6-0.9,29-4,43-9.1c7-2.6,13.9-5.6,20.6-9.2c6.7-3.5,13.2-7.7,19.4-12.4c6.2-4.7,12.3-9.8,18.5-14.5
			c6.2-4.8,12.6-9.3,19.4-12.8c6.8-3.5,14-5.8,21.3-6.5c7.3-0.7,14.7-0.1,21.9,1.6c14.5,3.3,28.1,10,41.8,16.2
			c13.7,6.5,27.8,11,41.8,16.2c14.1,4.9,28.2,9.3,42.6,12.6c7.2,1.6,14.4,3,21.7,3.9c3.6,0.5,7.3,0.8,10.9,1.3l10.9,1
			c14.6,1.2,29.2,1.9,43.8,2.2c29.2,0.6,58.4-0.5,87.6-2.2c-29.2,1.8-58.4,3-87.6,2.5c-14.6-0.2-29.2-0.9-43.8-2.1l-10.9-1
			c-3.6-0.4-7.3-0.8-10.9-1.2c-7.3-0.9-14.5-2.3-21.7-3.9c-14.4-3.2-28.6-7.7-42.7-12.5c-14-5.2-28.2-9.7-41.9-16.2
			c-13.7-6.2-27.4-12.8-41.8-16.1c-7.2-1.6-14.5-2.3-21.7-1.5c-7.3,0.7-14.4,3-21.1,6.4c-6.7,3.4-13.1,7.9-19.3,12.7
			c-6.2,4.8-12.2,9.8-18.5,14.6c-6.2,4.7-12.8,8.9-19.5,12.5c-6.7,3.6-13.6,6.7-20.6,9.3c-14,5.2-28.6,8.3-43.2,9.2
			c-14.6,1-29.4-0.4-43.7-4c-14.3-3.7-28.3-9.8-41.1-18.8c-12.8-8.8-24.3-20.6-33.7-34.6c-4.7-7-8.7-14.7-12.3-22.5
			c-3.7-7.8-7-15.9-10.2-24.1c-6.3-16.4-11.8-33.1-17.6-49.7c-2.9-8.3-5.9-16.6-9-24.7c-3.2-8.1-6.6-16.1-10.9-23.3
			c-2.2-3.6-4.6-7-7.2-10c-0.6-0.8-1.4-1.5-2.1-2.2c-0.7-0.7-1.4-1.5-2.1-2.1l-2.3-1.9c-0.7-0.7-1.6-1.1-2.4-1.7
			c-1.6-1.1-3.3-1.9-4.9-2.8c-1.7-0.7-3.4-1.5-5.2-1.9c-1.7-0.6-3.6-0.8-5.3-1.1c-1.8-0.1-3.6-0.4-5.4-0.3c-1.8-0.1-3.6,0.2-5.4,0.4
			c-1.8,0.3-3.6,0.5-5.4,1c-3.6,0.8-7.1,2.1-10.5,3.6l-2.6,1.2c-0.8,0.4-1.7,0.9-2.5,1.3l-5,2.7l-4.8,3.2c-0.8,0.5-1.6,1-2.4,1.6
			l-2.3,1.8c-12.5,9.4-23.3,21.7-33.2,34.9c-5,6.6-9.7,13.5-14.3,20.5c-4.6,7-9.2,14.1-13.7,21.1c-9.1,14.2-18.6,28-28.6,41.1
			c-20,26.4-41.7,50.8-64.5,73.4c-22.8,22.7-46.7,43.7-71.7,62.4c-6.3,4.7-12.6,9.2-19,13.5l-9.7,6.4c-3.2,2.1-6.5,4-9.8,6.1l-4.9,3
			c-1.6,1-3.3,1.9-5,2.8l-10,5.6l-10.1,5.1c-1.7,0.8-3.4,1.7-5.1,2.5l-5.1,2.3c-27.4,12.7-55.9,21.6-84.9,26.1l-10.9,1.4
			c-0.9,0.1-1.8,0.2-2.7,0.3l-2.7,0.2l-5.5,0.4l-5.5,0.4c-1.8,0.1-3.7,0.1-5.5,0.1c-3.7,0-7.3,0.1-11,0
			C59.7,460.2,45.1,458.4,30.7,455.3z"/>
		<path class="st0" d="M30.7,468.3c14.6,3.4,29.4,5.4,44.3,5.9l11.1,0.1c3.7-0.1,7.4-0.4,11.1-0.5c3.7-0.1,7.4-0.6,11.1-1l5.6-0.6
			c1.9-0.2,3.7-0.6,5.5-0.9c14.8-2.2,29.3-5.9,43.7-10.5l5.4-1.8l2.7-0.9c0.9-0.3,1.8-0.7,2.7-1l10.7-4c3.5-1.4,7-3,10.5-4.5
			c1.7-0.8,3.5-1.5,5.3-2.3l5.2-2.5l5.2-2.5l2.6-1.2l2.6-1.4l10.3-5.4c3.4-1.9,6.7-3.9,10.1-5.8c1.7-1,3.4-1.9,5-2.9l5-3.1l5-3.1
			c1.7-1,3.3-2.1,4.9-3.2l9.8-6.6c3.3-2.2,6.4-4.6,9.7-6.9l4.8-3.5l4.7-3.6c12.7-9.6,24.9-20,36.9-30.8l8.9-8.2l8.8-8.5
			c2.9-2.8,5.8-5.8,8.6-8.7c2.8-3,5.7-5.8,8.5-8.9c22.5-24.1,43.5-50.3,62.5-78.5l7.1-10.7l6.8-10.9c4.5-7.3,8.9-14.8,13.2-22.3
			c8.6-15,17.3-30,26.9-44.1c2.5-3.5,4.8-7,7.4-10.3c1.3-1.7,2.5-3.4,3.9-5l4-4.8c0.7-0.8,1.4-1.6,2.1-2.3l2.1-2.3
			c1.4-1.5,2.8-3.1,4.3-4.5l4.4-4.3c1.5-1.3,3.1-2.6,4.6-3.9l2.3-1.9l2.4-1.7c1.6-1.1,3.2-2.4,4.9-3.4c3.4-2,6.7-4.2,10.2-5.8
			c7-3.3,14.4-5.5,21.9-5.6c3.7,0,7.5,0.3,11.2,1.5c3.6,1.1,7.2,2.8,10.4,5.2l1.2,0.9c0.4,0.3,0.8,0.7,1.2,1c0.8,0.7,1.6,1.3,2.3,2
			c1.4,1.5,2.9,2.9,4.2,4.6c0.7,0.8,1.3,1.6,2,2.5c0.6,0.9,1.2,1.7,1.8,2.7c1.2,1.8,2.3,3.7,3.3,5.6c4.2,7.7,7.4,16.1,10.3,24.6
			c2.9,8.5,5.6,17.1,8.2,25.7c5.2,17.2,10.1,34.6,15.8,51.6c2.8,8.5,5.8,16.9,9.2,25.1c3.3,8.2,6.9,16.3,11.2,23.7
			c4.3,7.5,9.2,14.4,14.6,20.7c5.4,6.3,11.2,12,17.4,17c12.4,10,26.2,17.3,40.6,22c28.7,9.4,59.4,8.7,88-1.1
			c7.2-2.4,14.2-5.5,21-9.1c3.4-1.8,6.8-3.8,10.1-5.8c3.3-2.1,6.5-4.4,9.6-6.8c12.6-9.7,24.2-21.5,37.7-29.5c0.8-0.5,1.7-1,2.5-1.4
			l2.6-1.4c1.7-0.8,3.5-1.6,5.3-2.3c3.6-1.3,7.2-2.4,10.9-2.9c7.4-1.2,14.9-0.9,22.3,0.6c14.8,2.9,28.7,9.7,42.6,16.1
			c13.9,6.7,28.2,11.6,42.5,16.6c14.3,5,28.7,9.4,43.4,12.7c7.3,1.6,14.7,2.9,22.1,3.9c7.4,0.9,14.8,1.5,22.2,2.1
			c14.8,1.1,29.7,1.6,44.6,1.7c29.7,0.3,59.5-1.1,89.2-2.7c-29.7,1.7-59.4,3.1-89.2,3c-14.9-0.1-29.7-0.5-44.6-1.5
			c-7.4-0.6-14.8-1.1-22.2-2c-7.4-0.9-14.8-2.2-22.1-3.8c-14.7-3.2-29.1-7.7-43.4-12.6c-14.3-5-28.7-9.9-42.5-16.6
			c-13.9-6.4-27.9-13.1-42.5-16c-7.3-1.4-14.8-1.8-22.1-0.5c-7.3,1.1-14.5,4-21.1,8c-13.4,8-25,19.7-37.6,29.5
			c-3.1,2.5-6.4,4.7-9.7,6.9c-3.3,2.1-6.7,4.1-10.1,5.9c-6.8,3.6-13.9,6.7-21.1,9.2c-28.7,9.9-59.5,10.6-88.4,1.2
			c-14.4-4.7-28.3-12-40.8-22.1c-6.3-5-12.1-10.8-17.6-17.1c-5.4-6.3-10.4-13.3-14.7-20.8c-4.4-7.5-8-15.6-11.3-23.8
			c-3.3-8.2-6.4-16.7-9.2-25.2c-5.7-17-10.6-34.4-15.8-51.6c-2.6-8.6-5.3-17.2-8.2-25.7c-2.9-8.4-6.1-16.8-10.2-24.4
			c-1-1.9-2.1-3.7-3.3-5.5c-0.6-0.9-1.2-1.7-1.8-2.6c-0.6-0.8-1.3-1.6-1.9-2.4c-1.2-1.7-2.7-3-4.1-4.6c-0.7-0.7-1.5-1.3-2.3-2
			c-0.4-0.3-0.7-0.7-1.1-1l-1.2-0.8c-3.2-2.3-6.6-4-10.2-5.1c-3.6-1.2-7.3-1.5-10.9-1.5c-7.4,0.1-14.7,2.3-21.6,5.5
			c-3.5,1.6-6.7,3.8-10.1,5.7c-1.6,1.1-3.2,2.3-4.8,3.4l-2.4,1.7l-2.3,1.9c-1.5,1.3-3.1,2.6-4.6,3.9l-4.4,4.2
			c-1.5,1.4-2.9,2.9-4.3,4.4l-2.1,2.3c-0.7,0.7-1.4,1.5-2,2.3l-4,4.8c-1.3,1.6-2.6,3.3-3.9,5c-2.6,3.3-5,6.8-7.4,10.3
			c-9.6,14.1-18.2,29-26.9,44c-4.3,7.5-8.7,15-13.2,22.3l-6.8,10.9l-7.1,10.7C401,279.8,380,306,357.4,330c-2.8,3.1-5.7,5.9-8.5,8.9
			c-2.9,2.9-5.7,5.9-8.7,8.7l-8.8,8.5l-9,8.2c-12,10.8-24.3,21.3-37,30.8l-4.7,3.6l-4.8,3.5c-3.2,2.3-6.4,4.7-9.7,6.9l-9.8,6.6
			c-1.6,1.1-3.3,2.2-5,3.2l-5,3.1l-5,3.1c-1.7,1-3.4,1.9-5.1,2.9c-3.4,1.9-6.7,3.9-10.1,5.8l-10.3,5.4l-2.6,1.3l-2.6,1.2l-5.2,2.5
			l-5.2,2.5c-1.7,0.8-3.5,1.5-5.3,2.3c-3.5,1.5-7,3-10.6,4.4l-10.7,4c-0.9,0.3-1.8,0.7-2.7,1l-2.7,0.9l-5.4,1.7
			c-14.4,4.6-29,8.3-43.8,10.4c-1.8,0.3-3.7,0.7-5.5,0.8l-5.6,0.6c-3.7,0.4-7.4,0.9-11.1,1c-3.7,0.2-7.4,0.4-11.1,0.5l-11.2-0.2
			C60.1,473.8,45.3,471.8,30.7,468.3z"/>
		<path class="st0" d="M30.7,464.3l10.8,1.9l2.7,0.5c0.9,0.2,1.8,0.3,2.7,0.4l5.4,0.6l5.4,0.6l2.7,0.3c0.9,0.1,1.8,0.1,2.7,0.1
			l10.9,0.4c1.8,0.1,3.6,0.1,5.5,0L85,469l5.5-0.1c1.8,0,3.6-0.3,5.4-0.4l10.9-1l10.8-1.6c1.8-0.3,3.6-0.5,5.4-0.8l5.4-1.1
			c3.6-0.8,7.2-1.4,10.7-2.3c7.1-1.9,14.3-3.6,21.3-5.9l5.3-1.7l2.6-0.8c0.9-0.3,1.7-0.6,2.6-0.9l10.5-3.8l2.6-1l2.6-1.1l5.2-2.1
			c3.4-1.5,6.9-2.8,10.3-4.4l10.2-4.7c1.7-0.8,3.4-1.6,5.1-2.5l5-2.5c6.8-3.3,13.4-7.1,20-10.7c13.2-7.6,26.2-15.6,38.9-24.3
			c25.5-17.4,49.8-37.2,72.8-59.2c11.5-11,22.6-22.6,33.4-34.7c10.7-12.1,21.1-24.8,30.9-38c4.9-6.6,9.8-13.3,14.5-20.2
			c4.7-6.9,9.2-13.9,13.7-21c9-14.1,17.9-28.4,27.7-41.8c1.2-1.7,2.5-3.3,3.7-4.9c1.2-1.6,2.5-3.3,3.8-4.9l3.9-4.8l4-4.6l2-2.3
			l2.1-2.2c1.4-1.4,2.8-2.9,4.2-4.3c2.9-2.7,5.8-5.5,8.9-7.8l2.3-1.8c0.8-0.6,1.5-1.2,2.3-1.8l4.8-3.3c0.4-0.3,0.8-0.6,1.2-0.8
			l1.2-0.7l2.5-1.4c1.7-0.9,3.3-2,5-2.8c6.8-3.4,13.9-5.8,21.2-6.5c3.7-0.3,7.3-0.1,11,0.5c3.6,0.8,7.2,2,10.6,3.8
			c3.3,1.9,6.5,4.3,9.4,7.1c0.8,0.7,1.4,1.5,2.1,2.2c0.7,0.8,1.4,1.5,2,2.3c1.3,1.6,2.5,3.3,3.7,5c4.7,7,8.4,14.8,11.7,22.9
			c3.3,8.1,6.4,16.2,9.3,24.5c5.9,16.5,11.5,33.1,17.8,49.3c3.2,8.1,6.6,16,10.3,23.8c3.7,7.8,7.8,15.1,12.6,21.9
			c2.4,3.4,4.9,6.6,7.5,9.7c2.7,3,5.4,6,8.3,8.7c5.7,5.5,11.8,10.4,18.3,14.5c6.4,4.2,13.1,7.7,20,10.6c6.9,2.9,13.9,5.2,21,6.9
			c14.2,3.5,28.8,4.5,43.3,3.6c14.5-0.9,28.9-4,42.8-9.1c7-2.5,13.8-5.6,20.5-9.1c3.3-1.8,6.6-3.7,9.9-5.7c1.6-1,3.2-2.1,4.8-3.2
			c1.6-1.1,3.1-2.2,4.7-3.4c6.2-4.6,12.3-9.6,18.6-14.2c6.2-4.7,12.7-8.9,19.5-12.1c6.8-3.2,14.1-5.2,21.4-5.5
			c7.3-0.4,14.6,0.8,21.7,2.8c14.3,4,27.7,11.2,41.2,17.7c6.8,3.3,13.6,6.4,20.5,9.1c6.9,2.8,13.8,5.5,20.8,8.1
			c13.9,5.2,28,9.9,42.2,13.3c7.1,1.7,14.3,3.2,21.5,4.2c3.6,0.5,7.2,0.9,10.8,1.4c3.6,0.4,7.2,0.8,10.9,1.1
			c14.5,1.4,29,2.2,43.6,2.5c29.1,0.7,58.2-0.4,87.2-2.4c-29,2-58.1,3.3-87.2,2.7c-14.5-0.3-29.1-1-43.6-2.4
			c-3.6-0.3-7.3-0.7-10.9-1.1c-3.6-0.4-7.2-0.9-10.9-1.3c-7.2-1-14.4-2.4-21.6-4.1c-14.3-3.4-28.4-8.1-42.3-13.3
			c-7-2.6-13.9-5.3-20.8-8.1c-6.9-2.7-13.8-5.8-20.6-9.1c-13.5-6.5-27-13.7-41.1-17.6c-7.1-2-14.3-3.1-21.6-2.7
			c-7.2,0.3-14.4,2.3-21.2,5.5c-6.8,3.2-13.2,7.4-19.4,12.1c-6.2,4.6-12.3,9.6-18.5,14.2c-1.6,1.2-3.1,2.3-4.7,3.4
			c-1.6,1.1-3.2,2.2-4.8,3.2c-3.3,2-6.5,4-9.9,5.7c-6.7,3.6-13.6,6.6-20.6,9.2c-14,5.1-28.4,8.2-43,9.1c-14.6,1-29.2-0.1-43.5-3.6
			c-7.2-1.7-14.2-4-21.1-6.9c-6.9-2.9-13.6-6.5-20.1-10.7c-6.5-4.2-12.6-9.1-18.4-14.6c-2.9-2.7-5.6-5.7-8.3-8.8
			c-2.6-3.1-5.2-6.3-7.6-9.8c-4.8-6.8-9-14.3-12.7-22c-3.7-7.7-7.1-15.7-10.3-23.8c-6.4-16.2-12-32.9-17.9-49.3
			c-3-8.2-6-16.4-9.3-24.4c-3.3-8-7-15.8-11.6-22.7c-1.2-1.7-2.3-3.4-3.6-5c-0.6-0.8-1.3-1.5-2-2.3c-0.7-0.7-1.3-1.6-2-2.2
			c-2.8-2.8-5.9-5.1-9.2-7c-3.3-1.7-6.8-3-10.3-3.7c-3.6-0.6-7.2-0.8-10.8-0.5c-7.2,0.7-14.3,3-21,6.3c-1.7,0.8-3.3,1.8-5,2.8
			l-2.5,1.4l-1.2,0.7c-0.4,0.3-0.8,0.5-1.2,0.8l-4.7,3.3c-0.8,0.5-1.6,1.1-2.3,1.7l-2.3,1.8c-3.1,2.3-5.9,5.1-8.9,7.8
			c-1.4,1.4-2.8,2.8-4.2,4.3l-2.1,2.1l-2,2.3l-4,4.5l-3.9,4.7c-1.3,1.6-2.5,3.2-3.8,4.8c-1.2,1.6-2.5,3.2-3.7,4.9
			c-9.8,13.3-18.7,27.5-27.7,41.7c-4.5,7.1-9.1,14.1-13.8,21c-4.7,6.9-9.5,13.6-14.5,20.2c-9.9,13.2-20.3,25.9-31,38
			c-10.7,12.1-21.9,23.7-33.4,34.8c-23,22-47.5,41.8-73,59.2c-12.8,8.7-25.8,16.7-39,24.3c-6.7,3.6-13.3,7.4-20,10.7l-5.1,2.5
			c-1.7,0.8-3.4,1.7-5.1,2.5l-10.2,4.7c-3.4,1.6-6.9,2.9-10.3,4.4l-5.2,2.1l-2.6,1.1l-2.6,0.9l-10.5,3.8c-0.9,0.3-1.7,0.6-2.6,0.9
			l-2.6,0.8l-5.3,1.6c-7,2.3-14.2,4-21.3,5.9c-3.6,0.9-7.2,1.5-10.8,2.2l-5.4,1.1c-1.8,0.3-3.6,0.5-5.4,0.8l-10.8,1.6l-10.9,0.9
			c-1.8,0.1-3.6,0.4-5.4,0.4l-5.5,0.1l-5.5,0.1c-1.8,0.1-3.6,0.1-5.5,0l-10.9-0.5c-0.9-0.1-1.8,0-2.7-0.1l-2.7-0.3l-5.4-0.6
			l-5.4-0.6c-0.9-0.1-1.8-0.2-2.7-0.4l-2.7-0.5L30.7,464.3z"/>
		<path class="st0" d="M30.7,460.2l10.6,1.6c1.8,0.2,3.5,0.6,5.3,0.8l5.3,0.5l5.3,0.5c1.8,0.1,3.6,0.4,5.3,0.3l10.7,0.2
			c14.2-0.2,28.5-1.2,42.6-3.7l5.3-0.8c1.8-0.3,3.5-0.7,5.3-1.1l10.5-2.2l10.5-2.7l5.2-1.4l5.2-1.6l10.4-3.2l10.3-3.6l5.1-1.8l5.1-2
			l10.2-4c26.9-11.4,53.2-25.1,78.8-40.6c25.6-15.4,50.3-33.1,73.8-53.1c11.8-9.9,23.1-20.6,34.2-31.7c11-11.1,21.7-22.9,31.9-35.1
			c5.1-6.1,10.1-12.4,15-18.8c4.9-6.4,9.6-13,14.3-19.6c9.4-13.3,18.6-26.7,28.6-39.4c1.2-1.6,2.5-3.1,3.8-4.7
			c1.3-1.5,2.5-3.1,3.8-4.6c2.6-3,5.2-6,8-8.8c2.7-2.9,5.5-5.6,8.4-8.3c1.4-1.4,2.9-2.6,4.4-3.8c1.5-1.3,2.9-2.6,4.5-3.7l4.6-3.5
			c1.5-1.1,3.1-2.1,4.7-3.2l2.4-1.6c0.8-0.5,1.6-0.9,2.4-1.4l4.9-2.8c3.3-1.7,6.7-3.2,10.1-4.4l1.3-0.5l1.3-0.4
			c0.9-0.2,1.7-0.5,2.6-0.7c1.8-0.4,3.5-0.8,5.3-1c1.8-0.3,3.6-0.4,5.4-0.5c0.9,0,1.8,0,2.7,0l1.3,0l1.3,0.1
			c3.6,0.3,7.1,1.2,10.6,2.6c3.4,1.3,6.7,3.3,9.7,5.7l2.2,1.9c0.7,0.7,1.4,1.4,2.1,2.1c1.4,1.4,2.7,2.9,4,4.4
			c5.1,6.2,9.4,13.4,13.2,20.9c3.8,7.5,7.2,15.2,10.6,23c6.7,15.6,13,31.4,20.2,46.6c3.6,7.6,7.4,15.1,11.5,22.2
			c2,3.6,4.3,7,6.6,10.4c2.4,3.3,4.8,6.5,7.4,9.4c2.6,3,5.3,5.8,8.1,8.5c2.8,2.6,5.7,5.2,8.8,7.5c6,4.7,12.3,8.7,18.9,12.1
			c13.1,6.8,27,11.1,41.1,13.4c14.1,2.3,28.4,2.5,42.5,1c14.2-1.6,28.2-4.9,41.8-10c6.8-2.6,13.5-5.5,20.1-8.9
			c6.6-3.4,12.9-7.4,19.1-11.8c6.2-4.3,12.3-8.8,18.7-12.9c3.2-2.1,6.4-3.9,9.7-5.7c1.7-0.8,3.3-1.7,5-2.4c1.7-0.7,3.4-1.5,5.1-2
			c6.9-2.3,14.1-3.4,21.2-3c3.6,0.2,7.1,0.8,10.6,1.6c1.8,0.3,3.5,0.9,5.2,1.4c1.7,0.5,3.5,1.1,5.2,1.7
			c13.7,4.9,26.7,12.3,39.9,19.1c3.3,1.7,6.6,3.3,9.9,4.9c3.3,1.5,6.7,3,10.1,4.4c6.7,2.9,13.5,5.8,20.2,8.5
			c13.5,5.4,27.2,10.3,41.2,14c7,1.8,14,3.4,21,4.5c7.1,1.1,14.1,2.1,21.2,2.9c14.2,1.7,28.4,2.7,42.6,3.3c28.5,1.1,57,0.2,85.4-2.1
			c-28.4,2.4-56.9,3.4-85.4,2.4c-14.2-0.5-28.5-1.5-42.7-3.1c-7.1-0.8-14.2-1.8-21.2-2.9c-7.1-1.1-14.1-2.6-21.1-4.5
			c-13.9-3.7-27.7-8.6-41.2-14c-6.8-2.7-13.5-5.6-20.2-8.5c-3.4-1.5-6.7-2.9-10.1-4.4c-3.3-1.5-6.7-3.2-9.9-4.8
			c-13.2-6.7-26.1-14.1-39.8-19c-1.7-0.6-3.4-1.1-5.2-1.7c-1.7-0.4-3.5-1-5.2-1.3c-3.5-0.8-7-1.4-10.6-1.6c-7.1-0.5-14.2,0.6-21,3
			c-1.7,0.5-3.4,1.3-5.1,2c-1.7,0.7-3.3,1.6-5,2.4c-3.3,1.7-6.5,3.6-9.6,5.6c-6.3,4.1-12.4,8.6-18.6,12.9
			c-6.2,4.3-12.5,8.4-19.1,11.8c-6.6,3.4-13.3,6.4-20.1,9c-13.7,5.1-27.7,8.5-42,10.1c-14.2,1.5-28.6,1.4-42.7-0.9
			c-14.2-2.3-28.1-6.6-41.3-13.4c-6.6-3.4-13-7.4-19-12.1c-3-2.3-6-4.9-8.8-7.5c-2.8-2.7-5.6-5.5-8.2-8.6c-2.6-3-5.1-6.2-7.5-9.5
			c-2.3-3.4-4.6-6.8-6.6-10.4c-4.2-7.2-8-14.7-11.6-22.3c-7.2-15.3-13.5-31.1-20.2-46.6c-3.4-7.8-6.8-15.5-10.5-23
			c-3.8-7.4-8-14.5-13-20.7c-1.3-1.5-2.5-3.1-3.9-4.4c-0.7-0.7-1.4-1.4-2.1-2l-2.2-1.8c-3-2.3-6.1-4.3-9.5-5.6
			c-3.3-1.3-6.8-2.2-10.3-2.5l-1.3-0.1l-1.3,0c-0.9,0-1.8-0.1-2.6,0c-1.8,0.1-3.5,0.2-5.3,0.5c-1.8,0.2-3.5,0.6-5.2,1l-2.6,0.7
			l-1.3,0.4l-1.3,0.5c-3.4,1.1-6.7,2.7-10,4.3l-4.8,2.7c-0.8,0.5-1.6,0.9-2.4,1.4l-2.3,1.6c-1.6,1.1-3.1,2-4.7,3.1l-4.5,3.5
			c-1.5,1.1-3,2.4-4.4,3.7c-1.4,1.3-2.9,2.5-4.3,3.8c-2.8,2.7-5.6,5.3-8.3,8.2c-2.7,2.8-5.3,5.8-8,8.8c-1.3,1.5-2.6,3.1-3.8,4.6
			c-1.3,1.5-2.5,3.1-3.8,4.7c-10,12.6-19.2,26-28.6,39.3c-4.7,6.6-9.4,13.2-14.4,19.6c-4.9,6.4-9.9,12.7-15.1,18.8
			c-10.3,12.2-20.9,24-32,35.1c-11.1,11.1-22.4,21.8-34.2,31.7c-23.5,19.9-48.3,37.6-73.9,53C252.3,411.3,226,425,199,436.4l-10.2,4
			l-5.1,2l-5.1,1.8l-10.3,3.6l-10.4,3.2l-5.2,1.6l-5.2,1.4l-10.5,2.7l-10.5,2.2c-1.8,0.3-3.5,0.8-5.3,1.1l-5.3,0.8
			c-14.1,2.5-28.4,3.4-42.6,3.5L62.6,464c-1.8,0-3.6-0.2-5.3-0.4l-5.3-0.5l-5.3-0.5c-1.8-0.2-3.5-0.5-5.3-0.8L30.7,460.2z"/>
		<path class="st0" d="M30.7,456.1l10.4,1.4c1.7,0.2,3.5,0.5,5.2,0.6l5.2,0.3l5.2,0.3l2.6,0.2l1.3,0.1l1.3,0l10.5,0
			c3.5,0.1,7-0.3,10.5-0.5l5.2-0.3l2.6-0.2c0.9-0.1,1.7-0.2,2.6-0.3l10.4-1.2l2.6-0.3l2.6-0.4l5.2-0.9c27.7-4.6,54.8-13.2,81.5-23.5
			c13.3-5.3,26.5-10.9,39.5-17.1c6.5-3,13-6.3,19.5-9.5c3.2-1.6,6.5-3.3,9.7-4.9c3.2-1.7,6.5-3.3,9.7-5c25.6-13.6,50.7-29,74.6-46.8
			c23.9-17.8,46.6-38.2,67.7-60.7c10.6-11.3,20.7-23.1,30.4-35.5c9.7-12.4,19.3-25,29.5-36.9c10.1-11.9,21-23,32.9-32.2
			c3-2.2,6-4.5,9.1-6.4c1.6-1,3.1-2,4.7-2.9l4.8-2.6c6.4-3.5,13.2-6.1,20.1-7.5c6.9-1.3,14.1-1.4,21,0.5c6.9,1.9,13.4,5.9,18.8,11.4
			c5.5,5.4,10.3,11.8,14.6,18.7c4.3,6.9,8.1,14.1,11.9,21.4c7.6,14.5,14.7,29.4,22.7,43.6c4,7.1,8.2,14,12.8,20.4
			c2.4,3.1,4.6,6.4,7.3,9.2c1.3,1.4,2.5,2.9,3.9,4.3l4.1,3.9c0.7,0.6,1.4,1.3,2.1,2l2.2,1.8l4.4,3.6l4.5,3.2c1.5,1.1,3,2.1,4.6,3
			l4.7,2.8l1.2,0.7l1.2,0.6l2.4,1.2c1.6,0.8,3.2,1.7,4.9,2.4l5,2l2.5,1l2.5,0.9l5,1.7c1.7,0.6,3.4,0.9,5.1,1.4
			c1.7,0.4,3.4,0.9,5.1,1.3l5.2,1c1.7,0.3,3.4,0.7,5.2,0.9c3.5,0.5,6.9,1.1,10.4,1.3c27.8,2.5,56-1.7,82.6-11.7
			c6.7-2.5,13.3-5.4,19.7-8.6c6.4-3.3,12.7-7.1,18.9-11.1c6.2-3.9,12.4-8,18.8-11.4c6.4-3.4,13.1-6.3,20-7.9c3.5-0.7,7-1.2,10.5-1.3
			c3.5-0.1,7,0.2,10.5,0.7c7,1.2,13.7,3.4,20.4,6.2c13.3,5.6,25.8,13.3,38.6,20.2c6.4,3.5,12.9,6.5,19.5,9.6c6.5,3,13.1,6,19.7,8.9
			c13.2,5.7,26.5,10.8,40.1,14.7c13.6,4,27.4,6.3,41.3,8.3c13.9,1.9,27.8,3.3,41.7,4.1c27.9,1.5,55.9,0.8,83.7-1.8
			c-27.8,2.7-55.8,3.5-83.7,2.1c-14-0.7-27.9-2-41.8-3.9c-13.9-2-27.8-4.2-41.4-8.2c-13.6-3.9-27-9-40.2-14.7
			c-6.6-2.8-13.2-5.8-19.7-8.8c-6.5-3-13.1-6.1-19.5-9.5c-12.8-6.8-25.4-14.5-38.6-20.1c-6.6-2.7-13.4-5-20.3-6.1
			c-3.4-0.6-6.9-0.8-10.4-0.7c-3.5,0.1-6.9,0.6-10.4,1.3c-6.8,1.5-13.4,4.4-19.8,7.8c-6.4,3.4-12.6,7.5-18.8,11.4
			c-6.2,4-12.5,7.9-18.9,11.1c-6.5,3.3-13.1,6.2-19.8,8.7c-26.8,10.1-55,14.3-82.9,11.9c-3.5-0.2-7-0.8-10.4-1.3
			c-1.7-0.2-3.5-0.6-5.2-0.9l-5.2-1c-1.7-0.4-3.4-0.9-5.1-1.3c-1.7-0.5-3.4-0.8-5.1-1.4l-5.1-1.7l-2.5-0.9l-2.5-1l-5-2.1
			c-1.7-0.7-3.3-1.6-4.9-2.4l-2.4-1.2l-1.2-0.6l-1.2-0.7l-4.7-2.8c-1.6-0.9-3.1-2-4.6-3l-4.6-3.2l-4.4-3.6l-2.2-1.8
			c-0.7-0.6-1.4-1.3-2.1-2l-4.2-4c-1.4-1.4-2.6-2.9-3.9-4.3c-2.7-2.8-5-6.1-7.4-9.3c-4.6-6.5-8.9-13.4-12.9-20.5
			c-8-14.2-15.2-29.1-22.7-43.6c-3.8-7.2-7.6-14.5-11.9-21.3c-4.3-6.8-9-13.1-14.5-18.5c-5.4-5.4-11.7-9.3-18.4-11.2
			c-6.8-1.9-13.8-1.8-20.6-0.5c-6.8,1.4-13.5,3.9-19.9,7.4l-4.8,2.6c-1.6,0.9-3.1,1.9-4.7,2.9c-3.1,1.9-6.1,4.2-9.1,6.4
			c-11.8,9.2-22.6,20.1-32.7,32c-10.2,11.8-19.7,24.5-29.5,36.8c-9.7,12.4-19.9,24.3-30.5,35.6c-21.2,22.6-43.9,42.9-67.9,60.7
			c-24,17.8-49.1,33.2-74.8,46.8c-3.2,1.7-6.4,3.4-9.7,5c-3.2,1.6-6.4,3.3-9.7,4.9c-6.5,3.2-13,6.4-19.5,9.4
			c-13,6.2-26.3,11.8-39.6,17.1c-26.7,10.2-53.9,18.7-81.6,23.3l-5.2,0.9l-2.6,0.4l-2.6,0.3l-10.4,1.2c-0.9,0.1-1.7,0.2-2.6,0.3
			l-2.6,0.2l-5.2,0.3c-3.5,0.2-7,0.5-10.5,0.4l-10.5,0l-1.3,0l-1.3-0.1l-2.6-0.2l-5.2-0.3l-5.2-0.3c-1.7-0.1-3.5-0.4-5.2-0.6
			L30.7,456.1z"/>
		<path class="st0" d="M30.8,452.1c27.3,3.5,54.9,2.3,82-2.7c13.6-2.3,27-5.8,40.4-9.5c6.7-2,13.3-3.9,19.9-6.2
			c3.3-1.1,6.6-2.2,9.9-3.4l9.9-3.6c3.3-1.2,6.6-2.5,9.8-3.7l9.8-3.8c6.5-2.7,13-5.3,19.5-8.1c13-5.5,25.8-11.4,38.7-17.2
			c25.7-11.9,51-25,75.3-40.7c24.3-15.6,47.5-33.9,69.3-54.5c10.9-10.3,21.4-21.1,31.5-32.6c10.1-11.4,20-23.3,30.4-34.4
			c5.2-5.6,10.5-10.9,16-16.1c2.8-2.5,5.5-5.1,8.4-7.4c2.8-2.4,5.8-4.6,8.7-6.9c5.9-4.3,12-8.3,18.4-11.6c3.1-1.7,6.4-3.3,9.6-4.6
			c1.6-0.7,3.3-1.2,5-1.8c1.7-0.5,3.3-1,5-1.4c6.8-1.7,13.8-2.1,20.6-1c3.4,0.6,6.8,1.7,10.1,3.1c3.2,1.5,6.3,3.4,9.3,5.7
			c5.8,4.6,11.1,10.1,15.9,16.2c2.4,3,4.7,6.3,6.9,9.5c2.2,3.3,4.4,6.5,6.5,9.9c8.5,13.3,16.5,27.1,25.4,40c1.1,1.6,2.2,3.2,3.4,4.8
			c1.1,1.6,2.3,3.1,3.5,4.7c2.3,3.1,4.8,6.1,7.3,8.9l1.9,2.1c0.3,0.4,0.6,0.7,1,1.1l1,1l4.1,3.9l1,1l1.1,0.9l2.1,1.7l2.1,1.7
			l1.1,0.9l1.1,0.8c3,2,5.9,4.2,9.1,5.9c1.6,0.9,3.1,1.9,4.6,2.7l4.8,2.3c0.8,0.4,1.6,0.8,2.4,1.2l2.4,1l4.9,2
			c1.6,0.6,3.3,1.1,4.9,1.7c1.7,0.5,3.3,1.2,5,1.6c13.3,3.9,27,5.8,40.7,6.3c1.7,0.1,3.4,0.1,5.1,0.1l5.1,0
			c3.4-0.1,6.8-0.3,10.3-0.5c3.4-0.4,6.8-0.6,10.2-1.1l10.2-1.6c6.8-1,13.5-2.6,20.2-4.4c6.7-1.8,13.3-3.9,19.9-6.3
			c6.6-2.4,13.1-5.1,19.4-8.2c6.4-3.1,12.6-6.7,18.8-10.2c6.2-3.5,12.5-7,19-9.9c6.5-2.8,13.2-4.9,20.1-5.7
			c6.9-0.9,13.8-0.2,20.5,1.5c6.7,1.8,13.3,4.4,19.7,7.5c12.8,6.2,25,14.1,37.4,21.1c6.2,3.5,12.6,6.7,18.9,9.9
			c6.4,3.2,12.7,6.3,19.2,9.3c12.8,5.9,25.9,11.3,39.2,15.4c6.6,2.1,13.3,3.9,20.1,5.3l5.1,1.1l5.1,1c3.4,0.7,6.8,1.2,10.2,1.8
			c13.6,2.2,27.2,3.8,40.9,4.8c27.4,1.9,54.9,1.4,82.2-1.6c-27.3,3.1-54.8,3.7-82.2,1.9c-13.7-0.9-27.4-2.4-41-4.6
			c-3.4-0.6-6.8-1.1-10.2-1.8l-5.1-1l-5.1-1.1c-6.8-1.3-13.5-3.2-20.1-5.2c-13.3-4.1-26.4-9.5-39.2-15.4c-6.4-3-12.8-6.1-19.2-9.2
			c-6.4-3.2-12.7-6.3-19-9.9c-12.5-7-24.7-14.9-37.4-21c-6.4-3.1-12.9-5.7-19.6-7.4c-6.7-1.7-13.6-2.3-20.4-1.5
			c-6.8,0.8-13.5,2.9-19.9,5.7c-6.4,2.8-12.7,6.3-18.9,9.9c-6.2,3.5-12.4,7.2-18.8,10.3c-6.4,3.1-12.9,5.8-19.5,8.3
			c-6.6,2.4-13.2,4.6-19.9,6.4c-6.7,1.8-13.5,3.4-20.3,4.4l-10.2,1.6c-3.4,0.5-6.8,0.7-10.3,1.1c-3.4,0.2-6.9,0.4-10.3,0.5l-5.2,0
			c-1.7,0-3.4,0-5.2-0.1c-13.7-0.4-27.4-2.4-40.8-6.2c-1.7-0.4-3.3-1.1-5-1.6c-1.7-0.6-3.3-1.1-5-1.7l-4.9-2l-2.4-1
			c-0.8-0.4-1.6-0.8-2.4-1.2l-4.8-2.4c-1.6-0.8-3.1-1.8-4.7-2.7c-3.2-1.7-6.1-3.9-9.1-5.9l-1.1-0.8L671,298l-2.2-1.7l-2.2-1.7
			l-1.1-0.9l-1-1l-4.1-3.9l-1-1c-0.3-0.3-0.6-0.7-1-1.1l-1.9-2.1c-2.6-2.8-5-5.8-7.4-8.9c-1.2-1.5-2.4-3.1-3.5-4.7
			c-1.2-1.6-2.3-3.2-3.4-4.8c-9-12.9-17-26.7-25.5-40c-2.1-3.3-4.3-6.6-6.5-9.9c-2.2-3.2-4.4-6.4-6.8-9.4
			c-4.8-6-10.1-11.4-15.8-16.1c-2.9-2.2-5.9-4.2-9.1-5.6c-3.2-1.4-6.5-2.5-9.9-3c-6.7-1.1-13.6-0.7-20.3,0.9c-1.7,0.3-3.3,0.9-5,1.4
			c-1.6,0.6-3.3,1.1-4.9,1.8c-3.3,1.3-6.4,2.8-9.6,4.5c-6.3,3.2-12.4,7.3-18.3,11.5c-2.9,2.2-5.8,4.4-8.6,6.8
			c-2.9,2.3-5.6,4.9-8.4,7.4c-5.4,5.1-10.8,10.4-15.9,16c-10.4,11.1-20.2,22.9-30.4,34.3c-10.1,11.5-20.7,22.3-31.6,32.6
			c-21.8,20.6-45.1,38.9-69.5,54.5c-24.4,15.6-49.7,28.8-75.4,40.6c-12.9,5.9-25.7,11.7-38.7,17.2c-6.5,2.8-13,5.4-19.5,8.1
			l-9.8,3.8c-3.3,1.3-6.5,2.5-9.8,3.7l-9.9,3.6c-3.3,1.2-6.6,2.2-9.9,3.3c-6.6,2.3-13.3,4.1-20,6.2c-13.4,3.7-26.8,7.1-40.4,9.3
			C85.7,454.6,58,455.7,30.8,452.1z"/>
		<path class="st0" d="M30.8,448l10.1,0.8c1.7,0.1,3.4,0.3,5,0.4l5.1,0.1c3.4,0,6.7,0.1,10.1,0.1l10.1-0.5c1.7-0.1,3.4-0.1,5.1-0.3
			l5-0.5c3.4-0.4,6.7-0.6,10.1-1l10-1.5c1.7-0.3,3.4-0.5,5-0.8l5-1c3.3-0.7,6.7-1.3,10-1.9l9.9-2.3c1.7-0.4,3.3-0.8,5-1.2l4.9-1.3
			l9.9-2.6c13.1-3.9,26.2-7.9,39.2-12.5c26-9,51.6-19.3,77.3-29.5c25.7-10.1,51.2-21.1,75.9-34.5c24.7-13.4,48.4-29.5,70.8-48.1
			c11.2-9.3,22.1-19.1,32.6-29.7c10.5-10.5,20.7-21.4,31.3-31.8c5.3-5.2,10.7-10.2,16.2-15l4.2-3.5l2.1-1.8l2.1-1.7l4.3-3.3l4.4-3.2
			c0.7-0.5,1.5-1.1,2.2-1.6l2.2-1.5l4.5-2.9l4.6-2.7c0.8-0.4,1.5-0.9,2.3-1.3l2.3-1.2c6.2-3.4,12.6-6,19.3-7.9
			c6.6-1.7,13.4-2.7,20.2-2l1.3,0.1l1.3,0.2c0.8,0.1,1.7,0.2,2.5,0.4c1.7,0.4,3.4,0.7,5,1.3c1.7,0.5,3.3,1.2,4.9,1.9
			c1.6,0.8,3.2,1.5,4.7,2.6c6,3.8,11.7,8.4,17.1,13.6c2.7,2.6,5.2,5.4,7.6,8.3c2.5,2.9,4.9,5.8,7.2,8.8
			c9.5,11.9,18.5,24.4,28.3,35.8c4.9,5.7,10,11.2,15.5,16c5.5,4.7,11.4,8.9,17.5,12.2c12.2,6.9,25.4,11.2,38.6,13.8
			c13.3,2.7,26.8,3.7,40.2,3.4c26.9-0.7,53.8-6,79.7-15.1c6.5-2.3,12.9-4.8,19.2-7.7c6.3-2.9,12.5-6.1,18.8-9.2
			c6.3-3.1,12.6-6,19.1-8.2c3.3-1.1,6.6-2,9.9-2.7c1.7-0.3,3.4-0.6,5-0.7l2.5-0.2l1.3-0.1l1.3,0c6.8-0.2,13.6,1.1,20.1,3.4
			c6.5,2.2,12.9,5.2,19.1,8.5c12.4,6.7,24.2,14.8,36.4,22c6.1,3.6,12.3,6.9,18.5,10.2c6.2,3.3,12.4,6.6,18.7,9.6
			c12.5,6.2,25.2,11.8,38.2,16.2c6.5,2.2,13.1,4.2,19.7,5.7c6.6,1.6,13.3,3,19.9,4.3c13.3,2.5,26.7,4.4,40.2,5.5
			c26.9,2.3,54,1.9,80.8-1.4c-26.8,3.4-53.9,3.9-80.8,1.7c-13.5-1.1-26.9-2.9-40.2-5.3c-6.7-1.3-13.3-2.6-19.9-4.3
			c-6.6-1.5-13.2-3.4-19.7-5.6c-13-4.4-25.8-10-38.3-16.2c-6.3-3.1-12.5-6.3-18.7-9.6c-6.2-3.3-12.4-6.6-18.5-10.2
			c-12.2-7.2-24-15.3-36.4-21.9c-6.2-3.3-12.5-6.3-19-8.5c-6.5-2.2-13.2-3.5-19.9-3.3l-1.3,0l-1.3,0.1l-2.5,0.2
			c-1.7,0.2-3.3,0.5-5,0.7c-3.3,0.7-6.6,1.5-9.8,2.7c-6.5,2.2-12.8,5.1-19.1,8.2c-6.3,3.1-12.5,6.3-18.8,9.2
			c-6.3,2.9-12.8,5.4-19.3,7.7c-26,9.2-52.8,14.6-79.9,15.3c-13.5,0.3-27-0.7-40.4-3.3c-13.3-2.7-26.5-6.9-38.9-13.9
			c-6.2-3.3-12.1-7.6-17.7-12.3c-5.6-4.8-10.7-10.3-15.6-16c-9.9-11.4-18.9-23.9-28.3-35.8c-2.4-3-4.8-5.9-7.2-8.7
			c-2.4-2.9-4.9-5.6-7.6-8.2c-5.3-5.1-10.9-9.7-16.9-13.5c-1.5-1-3-1.7-4.6-2.5c-1.6-0.6-3.1-1.4-4.8-1.8c-1.6-0.6-3.3-0.9-4.9-1.3
			c-0.8-0.2-1.7-0.3-2.5-0.4l-1.2-0.2l-1.3-0.1c-6.7-0.6-13.4,0.3-20,2c-6.5,1.8-12.9,4.4-19.1,7.8l-2.3,1.2
			c-0.8,0.4-1.5,0.9-2.3,1.3l-4.6,2.7l-4.5,2.9l-2.2,1.5c-0.7,0.5-1.5,1-2.2,1.6l-4.4,3.1l-4.3,3.3l-2.1,1.7l-2.1,1.7l-4.2,3.5
			c-5.5,4.8-10.9,9.8-16.2,15c-10.6,10.3-20.8,21.3-31.3,31.8c-10.5,10.6-21.4,20.4-32.6,29.7c-22.4,18.6-46.2,34.7-70.9,48.1
			c-24.7,13.4-50.3,24.4-76,34.4c-25.7,10.1-51.4,20.4-77.4,29.4c-13,4.6-26.1,8.6-39.2,12.4l-9.9,2.6l-4.9,1.3
			c-1.7,0.4-3.3,0.8-5,1.2l-10,2.3c-3.3,0.7-6.7,1.3-10,1.9l-5,0.9c-1.7,0.3-3.3,0.5-5,0.8l-10.1,1.5c-3.4,0.4-6.7,0.7-10.1,1
			l-5,0.5c-1.7,0.1-3.4,0.2-5.1,0.2l-10.1,0.4c-3.4,0-6.7-0.1-10.1-0.1l-5.1-0.1c-1.7-0.1-3.4-0.3-5-0.4L30.8,448z"/>
		<path class="st0" d="M30.8,444l10,0.5l5,0.3l5,0l10-0.1l10-0.7l5-0.3l5-0.6l9.9-1.2l9.9-1.6l4.9-0.8l4.9-1l9.8-2l9.8-2.3l4.9-1.2
			c1.6-0.4,3.2-0.9,4.9-1.3l9.7-2.6c13-3.7,25.9-7.6,38.7-11.9c25.7-8.5,51.2-17.8,76.9-26.3c25.7-8.5,51.4-17.2,76.4-28.4
			c12.5-5.6,24.8-11.8,36.8-18.8c12-7,23.8-14.6,35.3-22.9c5.7-4.1,11.4-8.4,17-12.8c2.8-2.2,5.6-4.5,8.3-6.8c2.7-2.3,5.5-4.6,8.2-7
			c10.8-9.5,21.4-19.6,32.2-29.2c10.8-9.6,21.9-18.8,33.6-26.6c2.9-2,5.9-3.8,8.9-5.6c1.5-0.9,3-1.7,4.5-2.6c1.5-0.8,3-1.7,4.6-2.5
			c3.1-1.5,6.2-3.1,9.3-4.4c3.2-1.3,6.4-2.5,9.6-3.4c1.6-0.5,3.3-0.9,4.9-1.3c1.7-0.3,3.3-0.7,5-0.9c3.3-0.5,6.7-0.7,10-0.7
			c3.3,0,6.7,0.4,10,1.1c3.3,0.7,6.5,1.8,9.7,3.2c3.1,1.5,6.1,3.3,9.1,5.1c3,1.8,5.9,3.8,8.8,5.9c2.9,2.1,5.7,4.4,8.3,6.9
			c2.7,2.4,5.3,4.9,8,7.5c10.5,10.2,20.4,21.1,31.1,30.8c2.7,2.4,5.4,4.8,8.2,7c0.7,0.6,1.4,1.1,2.1,1.7l2.1,1.6
			c1.4,1,2.8,2.1,4.3,3.1l4.4,2.7l1.1,0.7l1.1,0.6l2.3,1.2c3,1.7,6.2,3,9.3,4.3c12.6,5.1,25.7,8,38.9,9.7
			c13.2,1.6,26.5,1.7,39.8,0.8c26.5-1.8,52.9-7.4,78.5-15.9c6.4-2.1,12.8-4.4,19.1-7c6.3-2.6,12.5-5.5,18.8-8.1
			c6.3-2.6,12.7-5,19.2-6.6c6.5-1.6,13.2-2.3,19.9-1.8c6.7,0.4,13.3,2.2,19.6,4.9c6.3,2.6,12.5,5.9,18.5,9.4
			c12,7.1,23.5,15.4,35.4,22.8c23.9,14.4,48.1,28.2,73.6,37.7l4.8,1.7l4.8,1.6c3.2,1,6.5,1.9,9.7,2.8c6.5,1.8,13,3.3,19.6,4.8
			c13.1,2.8,26.3,4.9,39.5,6.2c26.5,2.7,53.2,2.5,79.6-1.2c-26.4,3.8-53.1,4.1-79.7,1.5c-13.3-1.3-26.5-3.3-39.6-6.1
			c-6.6-1.4-13.1-2.9-19.6-4.7c-3.2-0.9-6.5-1.8-9.7-2.8l-4.8-1.6l-4.8-1.7c-12.8-4.7-25.2-10.6-37.5-17
			c-12.2-6.5-24.3-13.4-36.2-20.7c-11.9-7.4-23.4-15.7-35.4-22.7c-6-3.5-12.1-6.8-18.4-9.4c-6.3-2.6-12.8-4.4-19.4-4.9
			c-6.6-0.5-13.3,0.3-19.7,1.8c-6.5,1.6-12.9,4-19.2,6.6c-6.3,2.6-12.5,5.5-18.8,8.1c-6.3,2.6-12.7,4.9-19.1,7.1
			c-25.7,8.5-52.1,14.2-78.7,16.1c-13.3,0.9-26.6,0.8-39.9-0.8c-13.2-1.6-26.5-4.5-39.1-9.7c-3.1-1.4-6.3-2.7-9.4-4.4l-2.3-1.2
			l-1.2-0.6l-1.1-0.7l-4.5-2.8c-1.5-0.9-2.9-2.1-4.3-3.1l-2.2-1.6c-0.7-0.5-1.4-1.1-2.1-1.7c-2.8-2.2-5.5-4.6-8.2-7
			c-10.8-9.7-20.8-20.6-31.2-30.8c-2.6-2.5-5.2-5.1-7.9-7.5c-2.7-2.5-5.4-4.7-8.3-6.8c-2.8-2.1-5.8-4-8.7-5.9c-3-1.8-6-3.6-9-5
			c-3.1-1.4-6.3-2.5-9.5-3.2c-3.3-0.6-6.5-1.1-9.8-1.1c-3.3,0-6.6,0.2-9.9,0.7c-1.6,0.2-3.3,0.6-4.9,0.9c-1.6,0.4-3.3,0.8-4.9,1.3
			c-3.2,0.9-6.4,2.1-9.5,3.4c-3.1,1.3-6.2,2.9-9.3,4.4c-1.6,0.7-3,1.6-4.6,2.4c-1.5,0.9-3,1.6-4.5,2.6c-3,1.8-6,3.6-8.9,5.6
			c-11.7,7.8-22.8,16.9-33.6,26.5c-10.8,9.6-21.4,19.6-32.2,29.1c-2.7,2.4-5.5,4.7-8.2,7c-2.8,2.3-5.6,4.5-8.4,6.8
			c-5.6,4.4-11.3,8.7-17.1,12.8c-11.5,8.3-23.3,15.9-35.4,22.9c-12.1,7-24.4,13.2-36.9,18.8c-25,11.2-50.7,19.9-76.4,28.3
			c-25.7,8.5-51.2,17.8-76.9,26.2c-12.8,4.3-25.8,8.1-38.7,11.8l-9.8,2.6c-1.6,0.4-3.2,0.9-4.9,1.3l-4.9,1.1l-9.8,2.3l-9.8,2l-4.9,1
			l-4.9,0.8l-9.9,1.6l-9.9,1.1l-5,0.6l-5,0.3l-10,0.6l-10,0.1l-5,0l-5-0.3L30.8,444z"/>
		<path class="st0" d="M30.8,439.9l9.9,0.3l4.9,0.1l4.9-0.2l9.9-0.3l9.8-0.9l4.9-0.4l4.9-0.7l9.8-1.3l9.8-1.7l4.9-0.9
			c1.6-0.3,3.2-0.7,4.9-1c25.9-5.4,51.5-12.9,77-20.9c25.5-7.9,50.9-16.3,76.6-23.2c25.7-6.9,51.5-13.4,76.7-22.3
			c12.6-4.5,25.1-9.6,37.4-15.5c12.2-5.9,24.3-12.5,36-19.7c11.7-7.3,23.3-15,34.4-23.6c11.2-8.6,22-17.7,33.1-26.5
			c11.1-8.8,22.3-17.3,34.1-24.6c5.8-3.7,11.9-7.1,18-10.2c3.1-1.4,6.1-3,9.3-4.3c3.1-1.3,6.3-2.5,9.5-3.5c6.4-2,13-3.2,19.6-3.6
			c6.6-0.3,13.3,0.5,19.7,2.6c3.2,1.1,6.3,2.5,9.4,3.9c3.1,1.4,6.2,2.9,9.2,4.5c6.1,3.1,11.8,7.3,17.5,11.3
			c11.3,8.3,22.3,17.3,33.8,25c2.9,1.9,5.8,3.8,8.7,5.6c1.5,0.9,3,1.7,4.5,2.5l2.2,1.2c0.7,0.4,1.5,0.7,2.3,1.1l4.6,2.1l4.7,1.8
			c1.6,0.6,3.1,1.1,4.7,1.6c1.6,0.5,3.2,1,4.8,1.5c12.8,3.5,25.9,5.3,39,5.8c13.1,0.5,26.3,0,39.3-1.4c26.2-2.8,52.1-8.6,77.6-16.3
			c6.4-1.9,12.7-4,19-6.3c6.3-2.3,12.6-4.7,18.9-6.9c6.3-2.2,12.8-4.1,19.3-5.1c6.5-1,13.2-1.2,19.7-0.3c6.6,1,13,3.2,19.1,6.2
			c6.1,3,12.1,6.4,17.9,10.2c11.7,7.5,22.9,16,34.5,23.6c23.3,15,47,29.4,71.9,39.5c3.1,1.3,6.3,2.4,9.4,3.6
			c3.2,1.1,6.4,2.1,9.5,3.1c3.2,1,6.4,1.8,9.6,2.8c3.2,0.9,6.4,1.7,9.6,2.5c12.9,3.1,25.9,5.4,39,6.9c26.1,3.1,52.6,3.1,78.7-1
			c-26.1,4.2-52.5,4.2-78.7,1.3c-13.1-1.5-26.1-3.8-39-6.8c-3.2-0.8-6.4-1.6-9.7-2.4c-3.2-0.9-6.4-1.7-9.6-2.7c-3.2-1-6.4-1.9-9.6-3
			c-3.2-1.1-6.3-2.3-9.4-3.5c-25-10.1-48.7-24.5-72.1-39.5c-11.6-7.6-22.8-16.1-34.5-23.6c-5.8-3.7-11.8-7.2-17.9-10.1
			c-6.1-3-12.4-5.2-18.9-6.1c-6.5-1-13.1-0.7-19.6,0.3c-6.5,1-12.9,2.9-19.2,5.1c-6.3,2.2-12.6,4.6-18.9,6.9
			c-6.3,2.3-12.7,4.4-19.1,6.3c-25.5,7.8-51.5,13.6-77.7,16.4c-13.1,1.4-26.3,2-39.4,1.5c-13.2-0.5-26.3-2.3-39.2-5.8
			c-1.6-0.4-3.2-1-4.8-1.5c-1.6-0.5-3.2-1-4.8-1.6l-4.7-1.8l-4.6-2.1c-0.8-0.4-1.6-0.7-2.3-1.1l-2.3-1.2c-1.5-0.8-3-1.6-4.5-2.5
			c-3-1.8-5.9-3.7-8.8-5.6c-11.6-7.8-22.5-16.8-33.9-25c-5.7-4.1-11.3-8.2-17.4-11.3c-3-1.6-6.1-3.1-9.1-4.5
			c-3.1-1.4-6.2-2.8-9.3-3.9c-6.3-2.1-12.9-2.8-19.4-2.6c-6.5,0.3-13,1.5-19.4,3.5c-3.2,1-6.3,2.1-9.4,3.4c-3.1,1.3-6.1,2.8-9.2,4.3
			c-6.1,3.1-12.1,6.4-17.9,10.1c-11.7,7.3-22.9,15.8-34,24.5c-11.1,8.8-21.9,17.9-33.1,26.5c-11.2,8.6-22.8,16.4-34.5,23.6
			c-11.8,7.2-23.8,13.8-36.1,19.7c-12.3,5.9-24.8,11-37.4,15.4c-25.3,8.9-51.1,15.4-76.8,22.3c-25.7,6.9-51.1,15.2-76.6,23.1
			c-25.5,7.9-51.1,15.3-77.1,20.6c-1.6,0.3-3.2,0.7-4.9,1l-4.9,0.8l-9.8,1.7l-9.8,1.3l-4.9,0.6l-4.9,0.4l-9.8,0.8l-9.9,0.3l-4.9,0.1
			l-4.9-0.1L30.8,439.9z"/>
		<path class="st0" d="M30.9,435.8l9.8,0l4.9,0l4.9-0.3l9.8-0.6l9.7-1.1l4.9-0.5l4.8-0.7l9.7-1.5l9.7-1.8c3.2-0.6,6.4-1.2,9.6-2
			c25.7-5.6,51-13.1,76.3-20.6c12.7-3.8,25.3-7.4,38.1-11l9.6-2.5l4.8-1.3l4.8-1.2l9.6-2.3l9.6-2.1c25.7-5.3,51.5-9.6,77-16.3
			c12.7-3.4,25.4-7.3,37.8-12.1c12.4-4.8,24.7-10.3,36.7-16.5c12-6.2,23.8-13,35.3-20.6c11.5-7.6,22.7-15.8,34-23.8
			c11.3-8,22.7-15.8,34.5-22.7c5.9-3.5,11.9-6.6,18-9.6c6.1-2.9,12.2-5.7,18.6-7.6c3.2-1,6.4-1.8,9.6-2.5c3.2-0.6,6.5-1.2,9.7-1.5
			c3.3-0.3,6.5-0.4,9.8-0.2c3.3,0.2,6.5,0.6,9.8,1.3c3.2,0.7,6.4,1.8,9.5,2.8c3.2,1,6.3,2,9.5,3.1c3.1,1.1,6.3,2.3,9.3,3.7
			c3.1,1.4,6.1,2.9,9.1,4.4c12.1,6.1,23.9,12.9,36.1,18.6c3,1.4,6.1,2.8,9.2,4.1c1.5,0.6,3.1,1.2,4.7,1.8l2.3,0.9l2.4,0.7
			c6.3,2.1,12.7,3.3,19.1,4.4c12.9,2,25.9,2.6,38.9,2.3c13-0.4,26-1.6,38.9-3.4c25.9-3.7,51.5-9.5,76.9-16.5
			c6.4-1.7,12.7-3.5,19-5.5c6.3-2,12.6-4,19-5.7c6.4-1.7,12.8-3.1,19.3-3.6c6.5-0.6,13.1-0.3,19.5,1.1c6.5,1.4,12.7,4,18.7,7.3
			c6,3.2,11.8,6.9,17.5,10.8c11.4,7.8,22.4,16.5,33.7,24.5c22.7,15.6,45.9,30.7,70.4,41.5c3.1,1.4,6.2,2.6,9.3,3.8
			c3.1,1.2,6.3,2.2,9.4,3.3c3.1,1.1,6.3,2,9.4,3l9.5,2.7c12.7,3.4,25.6,6,38.5,7.7c25.9,3.5,52.1,3.7,77.9-0.8
			c-25.8,4.5-52.1,4.4-78,1.1c-13-1.7-25.8-4.2-38.6-7.6l-9.5-2.7c-3.2-1-6.3-1.9-9.5-3c-3.1-1.1-6.3-2.1-9.4-3.3
			c-3.1-1.2-6.2-2.5-9.3-3.8c-24.6-10.8-47.8-25.9-70.6-41.5c-11.3-7.9-22.3-16.6-33.7-24.4c-5.7-3.9-11.5-7.6-17.5-10.8
			c-5.9-3.2-12.1-5.8-18.5-7.2c-6.4-1.4-12.9-1.6-19.4-1.1c-6.5,0.6-12.9,1.9-19.2,3.7c-6.4,1.7-12.7,3.8-19,5.7
			c-6.3,2-12.7,3.8-19,5.5c-25.4,7-51.1,12.9-77,16.6c-13,1.8-26,3.1-39,3.4c-13,0.4-26.1-0.2-39.1-2.2c-6.5-1.1-12.9-2.4-19.2-4.4
			l-2.4-0.7l-2.3-0.9c-1.6-0.6-3.1-1.1-4.7-1.8c-3.1-1.3-6.2-2.6-9.2-4.1c-12.2-5.7-24-12.5-36.1-18.5c-3-1.5-6-3-9.1-4.4
			c-3-1.4-6.1-2.6-9.3-3.7c-3.1-1.1-6.3-2.1-9.4-3.1c-3.2-1-6.3-2.1-9.5-2.7c-3.2-0.7-6.4-1.1-9.6-1.3c-3.2-0.2-6.5-0.1-9.7,0.2
			c-3.2,0.3-6.4,0.8-9.7,1.4c-3.2,0.7-6.4,1.5-9.5,2.5c-6.3,1.9-12.4,4.7-18.5,7.5c-6,3-12,6.1-17.9,9.6
			c-11.8,6.8-23.2,14.6-34.5,22.6c-11.3,8-22.5,16.2-34,23.8c-11.5,7.6-23.4,14.4-35.4,20.6c-12,6.2-24.3,11.7-36.7,16.5
			c-12.4,4.8-25.1,8.7-37.8,12.1c-25.5,6.7-51.3,11-77,16.2l-9.6,2l-9.6,2.3l-4.8,1.2l-4.8,1.3l-9.6,2.5
			c-12.7,3.5-25.4,7.2-38.1,10.9c-25.3,7.4-50.7,14.8-76.4,20.3c-3.2,0.7-6.4,1.3-9.6,1.9l-9.7,1.8l-9.7,1.5l-4.9,0.7l-4.9,0.5
			l-9.7,1l-9.8,0.5l-4.9,0.3l-4.9,0L30.9,435.8z"/>
		<path class="st0" d="M30.9,431.8l9.7-0.3l4.9-0.1l4.8-0.4l9.7-0.8l9.7-1.3l4.8-0.6l4.8-0.8l9.6-1.7c3.2-0.6,6.4-1.3,9.6-2
			c3.2-0.7,6.4-1.3,9.6-2.1c25.5-5.9,50.6-13.3,75.9-20.4c12.6-3.6,25.3-6.9,38-10l9.6-2.1l4.8-1.1l4.8-0.9l9.6-1.8l9.6-1.5
			c25.7-3.6,51.6-5.8,77.2-10.4c12.8-2.3,25.6-5.1,38.1-8.8c12.6-3.7,25-8.2,37.3-13.4c12.2-5.2,24.3-11,36.1-17.6
			c11.8-6.6,23.3-13.9,34.9-21.1c11.6-7.2,23.2-14.3,35.1-20.7c5.9-3.2,12-6.2,18-9c6.1-2.7,12.2-5.4,18.5-7.4
			c3.1-1,6.3-1.9,9.5-2.6c3.2-0.7,6.4-1.3,9.6-1.7c6.5-0.8,13-1,19.5-0.2c3.3,0.4,6.4,1.1,9.6,1.7l9.6,1.8c3.2,0.6,6.4,1.3,9.6,2.2
			c3.2,0.9,6.3,1.8,9.5,2.7c12.6,3.8,25,8.2,37.7,11.7c3.2,0.9,6.3,1.7,9.5,2.5c1.6,0.4,3.2,0.7,4.8,1c1.6,0.3,3.2,0.7,4.8,0.9
			c6.4,1.1,12.8,1.6,19.3,2c25.9,1.1,51.7-2,77.3-6.3c12.8-2.2,25.6-4.8,38.3-7.7l38.2-8.9l9.5-2.2c3.2-0.8,6.3-1.6,9.5-2.4
			c6.3-1.6,12.7-3.3,19.1-4.5c12.7-2.7,26-3.6,38.7-0.1c6.4,1.7,12.5,4.6,18.3,8.1c5.9,3.5,11.5,7.3,17.1,11.4
			c11.2,8.2,21.9,17.1,33,25.4c22.2,16.3,44.9,32.1,69,43.7c3,1.5,6.1,2.8,9.1,4.1c3.1,1.3,6.2,2.4,9.2,3.6c3.1,1.2,6.2,2.2,9.3,3.3
			c3.1,1,6.3,2,9.4,3c12.6,3.7,25.3,6.6,38.2,8.6c25.7,3.9,51.8,4.3,77.4-0.5c-25.6,4.9-51.8,4.6-77.4,0.8
			c-12.9-1.9-25.6-4.7-38.2-8.4c-3.1-1-6.3-1.9-9.4-2.9c-3.1-1.1-6.3-2.1-9.3-3.3c-3.1-1.2-6.2-2.3-9.3-3.6
			c-3.1-1.3-6.1-2.7-9.1-4.1c-24.2-11.6-46.9-27.3-69.2-43.6c-11.1-8.3-21.9-17.2-33-25.3c-5.6-4.1-11.2-7.9-17.1-11.4
			c-5.8-3.5-11.9-6.3-18.2-8c-12.6-3.4-25.8-2.5-38.5,0.2c-6.4,1.3-12.7,2.9-19,4.6c-3.2,0.8-6.3,1.6-9.5,2.4l-9.5,2.2l-38.2,8.9
			c-12.7,2.9-25.5,5.5-38.3,7.7c-25.6,4.4-51.5,7.5-77.5,6.4c-6.5-0.4-13-0.9-19.4-2c-1.6-0.2-3.2-0.5-4.8-0.9
			c-1.6-0.3-3.2-0.6-4.8-1c-3.2-0.8-6.4-1.6-9.5-2.5c-12.7-3.5-25.1-7.8-37.7-11.6c-3.1-1-6.3-1.9-9.4-2.8c-3.1-0.9-6.3-1.5-9.5-2.2
			l-9.6-1.8c-3.2-0.6-6.4-1.3-9.6-1.7c-6.4-0.8-12.9-0.7-19.3,0.1c-3.2,0.4-6.4,1-9.6,1.7c-3.2,0.8-6.3,1.6-9.4,2.6
			c-6.3,1.9-12.4,4.6-18.4,7.3c-6,2.8-12.1,5.8-18,9c-11.9,6.3-23.5,13.5-35,20.6c-11.6,7.2-23.1,14.5-34.9,21.1
			c-11.8,6.6-23.9,12.4-36.2,17.6c-12.3,5.2-24.7,9.7-37.3,13.4c-12.6,3.7-25.4,6.5-38.2,8.8c-25.7,4.5-51.5,6.7-77.2,10.3l-9.6,1.5
			l-9.6,1.8l-4.8,0.9l-4.8,1.1l-9.6,2.1c-12.7,3.1-25.4,6.4-38,9.9c-25.3,7-50.5,14.3-76,20.1c-3.2,0.8-6.4,1.4-9.6,2.1
			c-3.2,0.6-6.4,1.3-9.6,1.9l-9.6,1.6l-4.8,0.8l-4.8,0.6l-9.7,1.2l-9.7,0.8l-4.8,0.4l-4.9,0.1L30.9,431.8z"/>
		<path class="st0" d="M30.9,427.7l9.7-0.5l4.8-0.3l4.8-0.5l9.6-1l9.6-1.5l4.8-0.7l4.8-0.9l9.6-1.8l9.5-2.1c3.2-0.7,6.4-1.4,9.5-2.2
			c25.3-6.1,50.4-13.6,75.7-20.2c12.6-3.4,25.3-6.3,38.1-8.9l9.6-1.7c1.6-0.3,3.2-0.6,4.8-0.8l4.8-0.7c3.2-0.4,6.4-0.9,9.6-1.3
			l9.7-0.9c25.8-2,51.6-2,77.4-4.4c12.9-1.2,25.7-2.9,38.4-5.6c12.7-2.7,25.3-6.1,37.8-10.3c12.4-4.2,24.8-9,36.8-14.6
			c12.1-5.6,23.9-12,35.7-18.4c11.8-6.4,23.6-12.9,35.7-18.8c6-3,12-5.8,18.1-8.4c3.1-1.3,6.1-2.6,9.2-3.8c3.1-1.2,6.2-2.3,9.3-3.3
			c12.5-4,25.4-6.4,38.4-6c3.3,0.1,6.5,0.5,9.7,0.7l9.7,0.5c3.2,0.2,6.5,0.3,9.7,0.7l9.6,1.1c12.9,1.6,25.7,3.4,38.5,4.7
			c6.4,0.6,12.9,1.1,19.3,1.3c6.4,0.2,12.9,0,19.3-0.4c25.8-1.6,51.3-6.2,76.8-11.5c12.7-2.6,25.4-5.5,38.1-8.3l38.2-8.2
			c6.4-1.4,12.7-2.8,19.1-4c6.4-1.3,12.8-2.5,19.2-3.4c6.4-0.9,12.9-1.4,19.4-1.2c6.5,0.2,12.9,1.2,19.2,3.2
			c6.3,1.9,12.3,5,18.1,8.8c5.8,3.6,11.3,7.7,16.8,12c11,8.5,21.5,17.7,32.3,26.4c21.8,17.1,44,33.6,67.8,46.1c3,1.6,6,3,9,4.5
			c3,1.4,6.1,2.7,9.1,3.9c3,1.3,6.2,2.4,9.2,3.6c3.1,1.2,6.2,2.2,9.3,3.3c12.5,4.1,25.1,7.3,37.9,9.5c25.5,4.4,51.6,5,77.1-0.2
			c-25.5,5.3-51.6,4.7-77.2,0.5c-12.8-2.2-25.5-5.3-38-9.3c-3.1-1.1-6.2-2.1-9.3-3.2c-3.1-1.2-6.2-2.3-9.2-3.6
			c-3.1-1.3-6.1-2.5-9.2-3.9c-3-1.4-6-2.9-9-4.4c-23.9-12.4-46.1-28.9-67.9-46c-10.9-8.7-21.4-17.9-32.4-26.3
			c-5.5-4.2-11-8.3-16.8-11.9c-5.7-3.7-11.7-6.8-17.9-8.7c-6.2-1.9-12.7-2.9-19.1-3.2c-6.4-0.2-12.9,0.3-19.3,1.2
			c-6.4,0.9-12.8,2.2-19.1,3.5c-6.4,1.3-12.7,2.7-19.1,4l-38.1,8.3c-12.7,2.8-25.4,5.7-38.1,8.3c-25.5,5.3-51.1,9.9-76.9,11.6
			c-6.5,0.4-12.9,0.6-19.4,0.4c-6.5-0.2-12.9-0.7-19.4-1.3c-12.9-1.2-25.7-3.1-38.6-4.6l-9.6-1.1c-3.2-0.3-6.4-0.5-9.6-0.7l-9.7-0.5
			c-3.2-0.2-6.5-0.5-9.7-0.7c-12.9-0.5-25.7,1.9-38.2,5.9c-3.1,1-6.2,2.1-9.3,3.3c-3.1,1.2-6.1,2.5-9.2,3.8
			c-6.1,2.7-12.1,5.4-18.1,8.4c-12,5.9-23.8,12.3-35.6,18.7c-11.8,6.4-23.7,12.8-35.8,18.4c-12.1,5.7-24.4,10.4-36.9,14.6
			c-12.5,4.2-25.1,7.6-37.8,10.3c-12.7,2.7-25.6,4.4-38.5,5.5c-25.8,2.3-51.6,2.3-77.4,4.3l-9.6,0.9c-3.2,0.4-6.4,0.9-9.6,1.3
			l-4.8,0.7c-1.6,0.2-3.2,0.6-4.8,0.8l-9.6,1.7c-12.7,2.6-25.4,5.5-38,8.9c-25.3,6.5-50.4,13.9-75.8,19.9c-3.2,0.8-6.3,1.5-9.5,2.2
			l-9.5,2.1l-9.6,1.8l-4.8,0.9l-4.8,0.7l-9.6,1.4l-9.6,1l-4.8,0.5l-4.8,0.2L30.9,427.7z"/>
		<path class="st0" d="M31,423.7l9.7-0.8l4.8-0.4l4.8-0.6l9.6-1.3l9.6-1.7l4.8-0.9l4.8-1l9.5-2l9.5-2.3c3.2-0.8,6.3-1.5,9.5-2.4
			c25.3-6.5,50.4-14.1,75.7-20.3c12.7-3.2,25.4-5.7,38.2-7.8c6.4-0.8,12.8-1.9,19.3-2.3l4.8-0.4l2.4-0.2c0.8-0.1,1.6,0,2.4-0.1
			l9.7-0.2c25.8,0.1,51.6,2,77.4,1.7c12.9-0.1,25.8-0.8,38.6-2.4c12.8-1.6,25.6-4.1,38.2-7.2c6.3-1.6,12.6-3.4,18.9-5.3
			c3.1-1,6.2-2,9.4-3c3.1-1.1,6.2-2.2,9.3-3.4c12.3-4.7,24.5-10.2,36.5-15.8c12.1-5.6,24.1-11.4,36.3-16.8
			c6.1-2.7,12.2-5.4,18.3-7.9c3.1-1.3,6.1-2.5,9.2-3.6c3.1-1.1,6.2-2.1,9.4-3.1c12.6-3.7,25.4-5.8,38.3-7.4
			c6.4-0.9,12.9-1.3,19.3-1.6l19.4-0.9c12.9-0.6,25.8-1.1,38.7-2c6.4-0.5,12.9-0.9,19.3-1.7c6.4-0.7,12.8-1.6,19.2-2.7
			c12.8-2.1,25.5-4.8,38.2-7.7c12.7-2.9,25.4-5.9,38-9c25.3-6.1,50.7-12.4,76.2-17c6.4-1.2,12.8-2.2,19.2-3.2
			c6.4-1,12.8-1.9,19.3-2.4c12.9-1,26-0.6,38.5,3.9c6.3,2.1,12.3,5.3,17.9,9.2c5.7,3.9,11.2,8.1,16.5,12.5
			c10.8,8.8,21.2,18.3,31.8,27.4c21.3,17.9,43.1,35.3,66.6,48.7c5.9,3.3,11.8,6.4,17.9,9.1c6,2.8,12.2,5.2,18.4,7.5
			c12.4,4.5,25,8,37.7,10.5c12.7,2.5,25.6,3.9,38.5,4c12.9,0.1,25.8-1,38.5-3.8c-12.7,2.9-25.6,4.1-38.5,4
			c-12.9-0.1-25.8-1.5-38.6-3.9c-12.8-2.4-25.4-5.9-37.8-10.3c-6.2-2.3-12.4-4.7-18.4-7.4c-6.1-2.6-12.1-5.7-17.9-9
			c-23.5-13.3-45.3-30.7-66.7-48.6c-10.6-9.1-21-18.5-31.8-27.3c-5.4-4.4-10.9-8.6-16.5-12.4c-5.6-3.9-11.6-7.1-17.8-9.2
			c-12.4-4.4-25.5-4.8-38.3-3.8c-6.4,0.6-12.8,1.5-19.2,2.4c-6.4,1-12.8,2-19.2,3.2c-25.5,4.6-50.9,10.9-76.2,17.1
			c-12.7,3.1-25.3,6.2-38,9.1c-12.7,2.9-25.4,5.6-38.2,7.8c-6.4,1.1-12.8,2-19.3,2.8c-6.4,0.7-12.9,1.2-19.3,1.7
			c-12.9,0.9-25.8,1.5-38.7,2.1c-12.9,0.7-25.8,0.7-38.6,2.4c-12.8,1.6-25.6,3.7-38.2,7.3c-3.1,0.9-6.2,1.9-9.3,3
			c-3.1,1.1-6.1,2.4-9.2,3.6c-6.1,2.5-12.2,5.1-18.3,7.9c-12.1,5.4-24.2,11.2-36.3,16.8c-12.1,5.6-24.2,11.1-36.6,15.7
			c-3.1,1.2-6.2,2.3-9.3,3.4c-3.1,1-6.2,2.1-9.4,3c-6.3,1.9-12.6,3.7-18.9,5.3c-12.7,3.1-25.5,5.6-38.3,7.2
			c-12.9,1.6-25.8,2.3-38.7,2.4c-25.8,0.3-51.6-1.7-77.4-1.8l-9.7,0.2c-0.8,0-1.6,0-2.4,0.1l-2.4,0.2l-4.8,0.4
			c-6.4,0.4-12.8,1.4-19.3,2.2c-12.8,2.1-25.5,4.6-38.2,7.7c-25.3,6.1-50.4,13.6-75.7,20c-3.2,0.8-6.3,1.6-9.5,2.3l-9.5,2.2l-9.5,2
			l-4.8,1l-4.8,0.8l-9.6,1.7l-9.6,1.3l-4.8,0.6l-4.8,0.4L31,423.7z"/>
		<path class="st0" d="M31,419.6l9.7-1l4.8-0.5l4.8-0.8l9.6-1.5l9.6-1.9l4.8-0.9l4.8-1.1l9.5-2.2c6.3-1.6,12.7-3.1,19-4.9
			c25.3-6.7,50.5-14.3,76-20c6.4-1.5,12.8-2.7,19.2-3.9c1.6-0.3,3.2-0.6,4.8-0.8l4.8-0.7c3.2-0.5,6.4-1,9.7-1.3l9.7-1
			c1.6-0.2,3.2-0.2,4.9-0.3l4.9-0.2l4.9-0.2c1.6-0.1,3.2,0.1,4.9,0.1l9.7,0.3c25.9,1.7,51.6,5.8,77.4,7.8
			c25.8,2.1,51.8,0.9,77.4-3.5c12.8-2.2,25.6-5.1,38.1-8.9c12.6-3.8,25-8.3,37.3-13.2c12.3-4.8,24.6-9.9,36.9-14.9
			c6.2-2.5,12.3-5,18.5-7.4c6.2-2.4,12.4-4.7,18.7-6.7c12.5-4,25.3-7.2,38.2-9c6.4-0.8,12.8-2,19.2-3.3c6.4-1.4,12.8-2.5,19.2-3.8
			c12.8-2.5,25.5-5.2,38.3-8.2c12.7-2.9,25.4-6,38-9.6c25.2-7.1,50.3-15.2,75.6-22.3c12.6-3.6,25.3-7,38-10.1
			c12.7-3.1,25.5-5.7,38.4-7.8c6.4-1,12.9-1.9,19.3-2.6c6.5-0.7,12.9-1.3,19.4-1.5c6.5-0.2,13,0,19.4,0.8c6.5,0.8,12.9,2.3,19.1,4.7
			c6.2,2.3,12.2,5.6,17.8,9.6c5.6,4.1,11,8.5,16.3,13.1c10.7,9.1,20.9,19,31.3,28.5c20.9,18.8,42.3,37.1,65.5,51.5
			c11.5,7.2,23.6,13.1,35.9,18c12.3,4.9,24.9,8.8,37.7,11.6c12.7,2.7,25.7,4.4,38.6,4.6c12.9,0.2,25.9-0.9,38.6-4
			c-12.7,3.1-25.7,4.3-38.6,4.2c-13-0.2-25.9-1.8-38.7-4.5c-12.8-2.7-25.4-6.6-37.7-11.4c-12.3-4.9-24.5-10.7-36-17.9
			c-11.6-7.1-22.8-15.3-33.6-24c-10.9-8.7-21.5-17.9-31.9-27.4c-10.4-9.5-20.7-19.3-31.3-28.4c-5.3-4.6-10.7-9-16.3-13
			c-5.6-4-11.5-7.2-17.7-9.5c-6.2-2.3-12.5-3.8-19-4.6c-6.4-0.8-12.9-0.9-19.4-0.7c-6.5,0.2-12.9,0.8-19.4,1.5
			c-6.4,0.7-12.9,1.6-19.3,2.6c-12.8,2.1-25.6,4.7-38.3,7.8c-12.7,3.1-25.3,6.5-38,10.1c-25.2,7.2-50.3,15.3-75.6,22.4
			c-12.6,3.6-25.3,6.7-38.1,9.6c-12.7,2.9-25.5,5.7-38.3,8.2c-6.4,1.3-12.8,2.4-19.2,3.8c-6.4,1.3-12.8,2.5-19.3,3.3
			c-12.8,1.7-25.6,4.9-38.1,8.9c-6.3,2-12.5,4.3-18.6,6.7c-6.2,2.4-12.3,4.9-18.5,7.3c-12.3,5-24.6,10.1-36.9,14.9
			c-12.4,4.8-24.8,9.4-37.4,13.1c-12.6,3.8-25.4,6.6-38.2,8.8c-25.7,4.4-51.7,5.6-77.6,3.4c-25.9-2-51.6-6.1-77.4-7.9l-9.7-0.3
			c-1.6,0-3.2-0.2-4.8-0.1l-4.8,0.2l-4.8,0.2c-1.6,0.1-3.2,0.1-4.8,0.3l-9.7,0.9c-3.2,0.2-6.4,0.8-9.6,1.3l-4.8,0.7
			c-1.6,0.2-3.2,0.5-4.8,0.8c-6.4,1.2-12.8,2.4-19.2,3.9c-25.5,5.6-50.7,13.1-76,19.7c-6.3,1.7-12.7,3.2-19,4.8l-9.6,2.2l-4.8,1.1
			l-4.8,0.9l-9.6,1.9l-9.6,1.5l-4.8,0.7l-4.8,0.5L31,419.6z"/>
		<path class="st0" d="M31,415.6c26-2.9,51.5-9.5,76.9-16.6c25.4-7.1,50.7-14.7,76.5-20c25.7-5.2,51.9-7.8,77.9-4.1
			c25.9,3.6,51.5,9.8,77.3,13.8c12.9,2,25.9,3.4,38.9,3.7c13,0.4,26-0.1,39-1.3c13-1.2,25.9-3.2,38.7-6.1
			c12.8-2.9,25.5-6.5,38.1-10.6c12.6-4.1,25.1-8.6,37.6-13.1l18.7-6.9c6.2-2.3,12.5-4.6,18.8-6.6c12.6-4.2,25.3-7.8,38.1-10.8
			c6.4-1.5,12.7-3.4,19-5.5c6.3-2.1,12.6-4.1,18.9-6.2c12.6-4.3,25-8.8,37.5-13.6c12.4-4.7,24.9-9.5,37.3-14.5
			c24.8-9.9,49.6-19.9,74.7-28.4c12.6-4.2,25.2-8.1,38-11.4c12.7-3.4,25.6-6,38.6-7.9c12.9-1.8,26-2.9,39-2.8
			c13,0.1,26.2,1.9,38.6,6.9c3.1,1.3,6.2,2.7,9.2,4.3c3,1.6,5.9,3.5,8.7,5.6c5.6,4.2,10.9,8.9,16.2,13.6
			c10.5,9.5,20.7,19.7,30.9,29.6c20.6,19.7,41.5,39,64.4,54.5c11.4,7.8,23.4,14.2,35.6,19.6c12.3,5.4,24.8,9.7,37.6,12.8
			c12.8,3.1,25.8,4.9,38.8,5.3c13,0.3,26.1-0.8,38.8-4.1c-12.7,3.3-25.8,4.6-38.8,4.3c-13-0.3-26-2.1-38.8-5.1
			c-12.8-3.1-25.4-7.3-37.7-12.6c-12.3-5.3-24.3-11.7-35.7-19.5c-11.5-7.7-22.5-16.4-33.2-25.6c-10.7-9.2-21.1-18.9-31.4-28.8
			c-10.3-9.9-20.4-20-30.9-29.5c-5.3-4.7-10.6-9.4-16.1-13.5c-2.8-2-5.7-3.9-8.6-5.5c-3-1.6-6-3-9.1-4.3
			c-12.4-4.9-25.4-6.7-38.4-6.8c-13-0.1-26,1-38.9,2.9c-12.9,1.9-25.8,4.5-38.5,8c-12.7,3.3-25.4,7.2-37.9,11.4
			c-25.1,8.4-49.9,18.5-74.7,28.4c-12.4,5-24.8,9.8-37.3,14.5c-12.4,4.7-24.9,9.4-37.5,13.6c-6.3,2.1-12.6,4.1-18.9,6.2
			c-6.3,2-12.6,4-19.1,5.5c-12.8,2.9-25.5,6.6-38.1,10.7c-6.3,2.1-12.5,4.3-18.8,6.6l-18.7,6.9c-12.5,4.6-25,9-37.6,13.1
			c-12.6,4.1-25.3,7.7-38.1,10.5c-12.8,2.8-25.8,4.8-38.8,6c-13,1.2-26,1.6-39.1,1.2c-13-0.4-26-1.8-39-3.8
			c-25.9-4-51.4-10.2-77.3-13.9c-25.9-3.8-52.1-1.2-77.7,4c-25.7,5.1-51.1,12.7-76.5,19.7C82.6,406.3,57,412.8,31,415.6z"/>
		<path class="st0" d="M31,411.5c52.3-7.4,102.4-28.8,154.4-38.1c13-2.3,26.1-3.8,39.3-4c6.6,0,13.1,0.2,19.7,0.9
			c6.5,0.7,13.1,1.8,19.5,3.2c25.9,5.6,51.3,13.9,77.1,19.8c51.6,12.3,105.1,10.7,156.3-3.2c12.8-3.3,25.6-7.2,38.3-11.4
			c6.3-2.1,12.7-4.3,19-6.5l19-6.5l38-13c6.3-2.2,12.5-4.7,18.7-7.4c6.2-2.7,12.4-5.5,18.5-8.3c24.5-11.5,48.6-24.6,72.8-37.2
			c12.1-6.3,24.2-12.5,36.5-18.4c12.2-5.9,24.6-11.4,37.1-16.4c12.5-5,25.2-9.4,38-13c6.4-1.7,12.8-3.6,19.3-4.9
			c6.5-1.4,13-2.6,19.5-3.4c13.1-1.8,26.2-2.5,39.4-1.9c13.1,0.6,26.3,3,38.8,8.2c1.5,0.7,3.1,1.3,4.6,2.1l2.3,1.1
			c0.8,0.4,1.5,0.8,2.3,1.2c3,1.6,5.9,3.6,8.8,5.6c2.8,2.1,5.6,4.4,8.2,6.8c2.7,2.4,5.3,4.8,7.9,7.3c10.4,9.9,20.5,20.4,30.6,30.8
			c20.2,20.7,40.8,41,63.4,57.6c5.6,4.1,11.4,8.1,17.3,11.6c5.9,3.5,11.9,6.8,18,9.7c12.2,5.9,24.8,10.6,37.6,14.1
			c12.8,3.5,25.9,5.6,39,6.1c13.1,0.5,26.3-0.7,39.1-4.3c-12.8,3.6-26,4.9-39.1,4.4c-13.1-0.4-26.2-2.5-39.1-5.9
			c-12.8-3.4-25.5-8.1-37.7-13.9c-6.1-2.9-12.2-6.2-18.1-9.6c-5.9-3.5-11.7-7.4-17.4-11.6c-11.3-8.3-22.1-17.5-32.7-27.3
			c-10.5-9.8-20.7-19.9-30.9-30.3c-10.1-10.4-20.2-20.8-30.6-30.7c-2.6-2.5-5.2-4.9-7.9-7.3c-2.6-2.4-5.3-4.7-8.2-6.7
			c-2.8-2-5.7-4-8.7-5.6c-0.7-0.4-1.5-0.8-2.2-1.2l-2.3-1.1c-1.5-0.8-3.1-1.4-4.6-2.1c-12.4-5.2-25.5-7.5-38.6-8.1
			c-13.1-0.6-26.2,0.1-39.3,1.9c-6.5,0.9-13,2.1-19.5,3.5c-6.5,1.3-12.9,3.2-19.3,5c-12.8,3.6-25.4,8.1-37.9,13.1
			c-12.5,5-24.8,10.5-37.1,16.4c-12.2,5.9-24.3,12.1-36.4,18.5c-24.2,12.6-48.2,25.7-72.8,37.3c-6.1,2.9-12.3,5.6-18.5,8.3
			c-6.2,2.7-12.5,5.2-18.8,7.4l-38,13l-19,6.5c-6.3,2.2-12.6,4.4-19,6.5c-12.7,4.2-25.5,8.1-38.3,11.4c-51.3,13.8-105,15.4-156.6,3
			c-25.8-6-51.2-14.3-77.1-19.9c-6.5-1.5-13-2.5-19.5-3.3c-6.5-0.7-13.1-0.9-19.6-0.9c-13.1,0.2-26.2,1.6-39.2,3.9
			C133.5,383,83.3,404.3,31,411.5z"/>
		<path class="st0" d="M31.1,407.4c52.6-8.9,103-31.6,155.8-39.7c6.6-0.9,13.2-1.7,19.8-2.1l2.5-0.2l2.5-0.1l5-0.1
			c3.3,0,6.6,0,10,0.2c13.3,0.5,26.5,3.1,39.4,7c25.8,7.6,51.1,17.9,76.8,25.7c25.7,8,52.1,12.6,78.6,13.8c26.5,1.3,53.1-1,79.2-6.2
			c13.1-2.6,26.1-5.9,39-9.7c12.9-3.8,25.7-8.3,38.4-13c12.7-4.7,25.3-9.8,37.8-15.3c12.4-5.7,24.5-12.4,36.5-19.4
			c23.9-14.1,47.1-30.1,70.7-45.2c23.5-15.2,47.4-29.8,72.2-41.6c12.4-5.8,25-11,37.9-15.2l2.4-0.8l2.4-0.7l4.9-1.4
			c3.2-0.9,6.5-1.9,9.7-2.7c6.5-1.6,13.1-2.8,19.7-3.7c13.2-1.8,26.5-2.4,39.8-1.3c13.2,1.1,26.5,3.9,39,9.4
			c6.3,2.8,12.3,6.2,18.1,10.4c2.9,2.1,5.6,4.4,8.3,6.9c2.7,2.5,5.2,5.1,7.8,7.6c10.3,10.3,20.3,21.2,30.2,32
			c19.9,21.6,40.1,43.1,62.4,60.9c22.2,18,47,30.9,72.7,38.6l2.4,0.7l2.4,0.6l4.9,1.3c3.3,0.8,6.5,1.4,9.8,2.1
			c3.3,0.5,6.6,1.1,9.9,1.4l5,0.5l2.5,0.2l2.5,0.1c13.2,0.6,26.6-0.6,39.5-4.4c-12.9,3.9-26.3,5.1-39.5,4.6l-2.5-0.1l-2.5-0.2
			l-5-0.4c-3.3-0.4-6.6-0.9-9.9-1.4c-3.3-0.7-6.6-1.3-9.8-2l-4.9-1.2l-2.4-0.6l-2.4-0.7c-25.8-7.6-50.7-20.4-72.9-38.4
			c-22.4-17.8-42.6-39.3-62.5-60.9c-10-10.8-19.9-21.7-30.2-32c-2.6-2.6-5.2-5.1-7.8-7.6c-2.6-2.4-5.4-4.7-8.3-6.8
			c-5.7-4.1-11.7-7.5-18-10.3c-12.5-5.5-25.7-8.2-38.9-9.3c-13.2-1-26.5-0.5-39.7,1.4c-6.6,0.9-13.1,2.2-19.6,3.7
			c-3.3,0.8-6.5,1.7-9.7,2.7l-4.8,1.4l-2.4,0.7l-2.4,0.8c-12.8,4.2-25.4,9.3-37.8,15.2c-24.8,11.8-48.6,26.4-72,41.6
			c-23.5,15.2-46.7,31.2-70.7,45.3c-12,7-24.1,13.8-36.6,19.4c-12.5,5.6-25.1,10.6-37.9,15.3c-12.7,4.7-25.5,9.1-38.4,13
			c-12.9,3.9-25.9,7.1-39,9.7c-26.2,5.2-52.8,7.5-79.4,6.1c-26.5-1.3-53-5.9-78.7-14c-25.8-7.9-51-18.2-76.8-25.8
			c-12.9-4-26-6.5-39.2-7.1c-3.3-0.2-6.6-0.2-9.9-0.2l-5,0.1l-2.5,0.1l-2.5,0.2c-6.6,0.3-13.2,1.1-19.8,2.1
			C134.2,376.2,83.7,398.7,31.1,407.4z"/>
		<path class="st0" d="M31.1,403.4c26.5-5.3,52.5-14,78.5-22.1c26-8.1,52.2-15.9,79-19.1c6.7-0.8,13.4-1.2,20.1-1.3
			c6.7,0,13.4,0.3,20.1,1c6.7,0.9,13.4,2,19.9,3.8c6.6,1.8,13,4,19.5,6.5c25.7,9.6,50.7,21.9,76.4,31.6c3.2,1.2,6.4,2.4,9.7,3.5
			c3.2,1.2,6.5,2.1,9.7,3.1l9.8,3l9.9,2.4l4.9,1.2c1.6,0.4,3.3,0.9,4.9,1.1l10,1.8l5,0.9c0.8,0.1,1.7,0.3,2.5,0.4l2.5,0.3l10,1.2
			c26.7,3,53.7,2.7,80.3-1.1c26.6-3.8,53-11,78.5-21.3l9.5-4c1.6-0.6,3.1-1.4,4.7-2.2l4.7-2.3l9.4-4.5l9.2-5.1l4.6-2.5
			c1.5-0.9,3.1-1.7,4.6-2.6l9-5.6c6-3.6,11.8-7.8,17.7-11.8c23.3-16.4,45.8-34.6,68.6-52.2c11.4-8.9,22.9-17.4,34.6-25.7
			c5.9-4,11.7-8.1,17.8-11.8l4.5-2.8c1.5-0.9,3-1.9,4.5-2.8l9.1-5.3c12.3-6.7,24.8-13,37.7-17.6c6.4-2.6,13-4.4,19.5-6.4
			c6.5-1.9,13.2-3.3,19.9-4.3c13.3-2,26.9-2.5,40.3-1.1c6.7,0.7,13.4,1.9,20,3.6c6.6,1.7,13.1,4,19.4,6.9
			c6.3,2.9,12.4,6.4,18.2,10.7c5.8,4.2,11.2,9.3,16.2,14.8c10.2,10.8,20.1,22.1,29.9,33.4c19.7,22.6,39.4,45.3,61.4,64.3
			c1.4,1.2,2.7,2.4,4.1,3.5l4.2,3.4c2.8,2.3,5.7,4.4,8.5,6.6c1.4,1.1,2.9,2,4.4,3.1c1.5,1,2.9,2.1,4.4,3l4.5,2.8l2.2,1.4l2.3,1.3
			c12.2,7,24.8,12.7,37.8,17c13,4.3,26.3,7.1,39.7,7.8c13.4,0.8,26.9-0.4,40-4.5c-13,4.2-26.6,5.4-40,4.7
			c-13.4-0.7-26.8-3.4-39.7-7.7c-13-4.2-25.7-9.9-37.9-16.9l-2.3-1.3l-2.3-1.4l-4.5-2.8c-1.5-0.9-2.9-2-4.4-3c-1.5-1-2.9-2-4.4-3.1
			c-2.9-2.2-5.8-4.3-8.6-6.6l-4.2-3.4c-1.4-1.1-2.8-2.3-4.2-3.5c-22.1-19.1-41.8-41.7-61.5-64.3c-9.9-11.3-19.7-22.5-29.9-33.3
			c-5-5.5-10.4-10.5-16.2-14.7c-5.8-4.2-11.9-7.7-18.1-10.6c-6.3-2.9-12.7-5.1-19.3-6.8c-6.6-1.7-13.2-2.9-19.9-3.5
			c-13.4-1.3-26.8-0.9-40.1,1.2c-6.6,1-13.3,2.4-19.8,4.3c-6.5,2-13.1,3.8-19.4,6.4c-12.9,4.7-25.3,10.9-37.6,17.6l-9.1,5.3
			c-1.5,0.9-3,1.8-4.5,2.8l-4.5,2.8c-6,3.7-11.8,7.8-17.7,11.8c-11.6,8.3-23.2,16.8-34.5,25.7c-22.8,17.6-45.2,35.9-68.6,52.4
			c-5.9,4-11.7,8.2-17.8,11.8l-9,5.6c-1.5,1-3,1.8-4.6,2.6l-4.6,2.5l-9.2,5.1l-9.4,4.5l-4.7,2.3c-1.6,0.7-3.1,1.6-4.7,2.2l-9.6,4
			c-25.5,10.4-51.9,17.5-78.6,21.3c-26.7,3.8-53.7,4-80.5,1l-10-1.3l-2.5-0.3c-0.8-0.1-1.7-0.3-2.5-0.4l-5-0.9l-10-1.8
			c-1.7-0.3-3.3-0.8-5-1.1l-4.9-1.2l-9.9-2.5l-9.8-3c-3.3-1-6.5-2-9.8-3.1c-3.2-1.1-6.5-2.3-9.7-3.5c-25.7-9.8-50.7-22.1-76.4-31.7
			c-6.4-2.4-12.9-4.7-19.4-6.5c-6.5-1.8-13.2-2.9-19.9-3.8c-6.7-0.7-13.4-1.1-20.1-1c-6.7,0.1-13.4,0.5-20.1,1.3
			c-26.7,3-53,10.7-79,18.8C83.6,389.6,57.6,398.2,31.1,403.4z"/>
	</g>
</g>
</svg>
