<?xml version="1.0" encoding="utf-8"?>
<!-- Generator: Adobe Illustrator 24.1.2, SVG Export Plug-In . SVG Version: 6.00 Build 0)  -->
<svg version="1.1" id="Слой_1" xmlns="http://www.w3.org/2000/svg" xmlns:xlink="http://www.w3.org/1999/xlink" x="0px" y="0px"
	 viewBox="0 0 60 60" style="enable-background:new 0 0 60 60;" xml:space="preserve">
<style type="text/css">
	.st0{fill:#EEC062;}
</style>
<g>
	<g>
		<path class="st0" d="M11.9,45c-3.1-3.9-5-8.9-5-14.4c0-12.8,10.4-23.2,23.2-23.2c5.4,0,10.4,1.9,14.4,5l3.2-3.2
			C42.8,5.4,36.7,3,30.1,3C14.8,3,2.4,15.4,2.4,30.7c0,6.7,2.4,12.8,6.3,17.6L11.9,45z"/>
		<path class="st0" d="M51.4,13.1l-3.2,3.2c3.1,3.9,5,8.9,5,14.4c0,12.8-10.4,23.2-23.2,23.2c-5.4,0-10.4-1.9-14.4-5L12.5,52
			c4.8,3.9,10.9,6.3,17.6,6.3c15.3,0,27.7-12.4,27.7-27.7C57.7,24,55.3,17.9,51.4,13.1z"/>
	</g>
	<g>
		<path class="st0" d="M43.9,31.6c-0.5,6.8-6.2,12.2-13.1,12.2c-2.9,0-5.5-0.9-7.7-2.5L20,44.5c3,2.3,6.7,3.7,10.7,3.7
			c9.6,0,17.4-7.8,17.4-17.4c0-1.1-0.1-2.1-0.3-3.1L43.9,31.6z"/>
		<path class="st0" d="M16.4,29c0.6-6.8,6.4-12.1,13.3-12c2.9,0,5.5,1,7.6,2.6l3.1-3c-2.9-2.4-6.6-3.8-10.7-3.9
			c-9.6-0.2-17.6,7.5-17.7,17.2c0,1.1,0.1,2.1,0.2,3.1L16.4,29z"/>
	</g>
	
		<rect x="17.5" y="27.6" transform="matrix(0.7071 -0.7071 0.7071 0.7071 -10.0165 35.438)" class="st0" width="40.6" height="4.4"/>
	<rect x="3.3" y="28" transform="matrix(0.7071 -0.7071 0.7071 0.7071 -14.4472 25.5194)" class="st0" width="40.6" height="4.4"/>
</g>
</svg>
