<?xml version="1.0" encoding="utf-8"?>
<!-- Generator: Adobe Illustrator 24.1.2, SVG Export Plug-In . SVG Version: 6.00 Build 0)  -->
<svg version="1.1" id="Слой_1" xmlns="http://www.w3.org/2000/svg" xmlns:xlink="http://www.w3.org/1999/xlink" x="0px" y="0px"
	 viewBox="0 0 125 125" style="enable-background:new 0 0 125 125;" xml:space="preserve">
<style type="text/css">
	.st0{fill:#EEC062;}
</style>
<image style="display:none;overflow:visible;" width="512" height="512" xlink:href="../../../../ЗАГРУЗКИ/left.png"  transform="matrix(0.2426 0 0 0.2426 0 0)">
</image>
<g>
	<path class="st0" d="M62.1,120.5c32.3-0.1,58.4-26.3,58.4-58.6C120.4,29.6,94.2,3.4,61.9,3.5S3.4,29.8,3.5,62.1
		S29.8,120.6,62.1,120.5z M61.4,9.5c29.3-0.1,53.1,23.6,53.1,52.9c0.1,29.3-23.6,53.1-52.9,53.1C32.3,115.6,8.5,91.9,8.5,62.6
		C8.4,33.3,32.1,9.5,61.4,9.5z"/>
	<path class="st0" d="M85.7,59.7L85.7,59.7c-1.2-1.2-3.3-1.2-4.5,0L50.8,90.3c-1.2,1.2-1.2,3.3,0,4.5h0c1.2,1.2,3.3,1.2,4.5,0
		l30.4-30.6C87,63,87,60.9,85.7,59.7z"/>
	<path class="st0" d="M85.6,63.5L85.6,63.5c1.2-1.2,1.2-3.3,0-4.5L55,28.6c-1.2-1.2-3.3-1.2-4.5,0l0,0c-1.2,1.2-1.2,3.3,0,4.5
		l30.6,30.4C82.3,64.7,84.3,64.7,85.6,63.5z"/>
</g>
</svg>
