<?xml version="1.0" encoding="utf-8"?>
<!-- Generator: Adobe Illustrator 24.1.2, SVG Export Plug-In . SVG Version: 6.00 Build 0)  -->
<svg version="1.1" id="Слой_1" xmlns="http://www.w3.org/2000/svg" xmlns:xlink="http://www.w3.org/1999/xlink" x="0px" y="0px"
	 viewBox="0 0 595.3 841.9" style="enable-background:new 0 0 595.3 841.9;" xml:space="preserve">
<style type="text/css">
	.st0{fill:#EEC063;}
</style>
<g>
	<g>
		<path class="st0" d="M261,218.1c-6.3-8-10.1-18-10.1-29c0-25.8,20.9-46.7,46.7-46.7c10.9,0,21,3.8,29,10.1l6.4-6.4
			c-9.6-7.9-22-12.7-35.4-12.7c-30.8,0-55.8,25-55.8,55.8c0,13.4,4.8,25.8,12.7,35.4L261,218.1z"/>
		<path class="st0" d="M340.7,153.7l-6.4,6.4c6.3,8,10.1,18,10.1,29c0,25.8-20.9,46.7-46.7,46.7c-10.9,0-21-3.8-29-10.1l-6.4,6.4
			c9.6,7.9,22,12.7,35.4,12.7c30.8,0,55.8-25,55.8-55.8C353.4,175.7,348.7,163.4,340.7,153.7z"/>
	</g>
	<g>
		<path class="st0" d="M325.5,191.2c-1,13.8-12.4,24.7-26.5,24.7c-5.8,0-11.1-1.9-15.5-5l-6.2,6.2c6,4.7,13.5,7.5,21.6,7.5
			c19.4,0,35.2-15.8,35.2-35.2c0-2.1-0.2-4.2-0.6-6.2L325.5,191.2z"/>
		<path class="st0" d="M270.1,185.8c1.2-13.8,12.8-24.5,26.9-24.3c5.8,0.1,11.1,2,15.4,5.2l6.3-6.1c-5.9-4.8-13.4-7.7-21.5-7.8
			c-19.4-0.3-35.4,15.2-35.7,34.6c0,2.1,0.1,4.2,0.5,6.3L270.1,185.8z"/>
	</g>
	
		<rect x="272.3" y="183" transform="matrix(0.7071 -0.7071 0.7071 0.7071 -40.8226 276.3751)" class="st0" width="81.9" height="8.9"/>
	
		<rect x="243.6" y="183.8" transform="matrix(0.7071 -0.7071 0.7071 0.7071 -49.7599 256.368)" class="st0" width="81.9" height="8.9"/>
</g>
</svg>
